<?xml version="1.0" encoding="utf-8"?>
<!-- Generator: Adobe Illustrator 19.0.0, SVG Export Plug-In . SVG Version: 6.00 Build 0)  -->
<svg version="1.1" id="Layer_1" xmlns="http://www.w3.org/2000/svg" xmlns:xlink="http://www.w3.org/1999/xlink" x="0px" y="0px"
	 viewBox="0 0 5600 2020" style="enable-background:new 0 0 5600 2020;" xml:space="preserve">
<style type="text/css">
	.st0{fill:#FFFFFF;}
	.st1{fill:#E4F0FF;}
	.st2{fill:#F9B5B2;}
	.st3{fill:#07085B;}
	.st4{fill:#57ACE5;}
	.st5{opacity:0.3;fill:#57ACE5;}
	.st6{fill:#026EAF;}
	.st7{fill:#02CCC0;}
	.st8{opacity:0.3;}
	.st9{fill:#142666;}
	.st10{fill:#70C0FD;}
	.st11{fill:#4188E4;}
	.st12{fill:#97CEF7;}
	.st13{opacity:0.3;fill:#E87B50;}
	.st14{fill:#00AA99;}
	.st15{fill:#F4A640;}
	.st16{fill:#202121;}
	.st17{fill:#333333;}
	.st18{fill:#183658;}
	.st19{fill:#FEE4CB;}
	.st20{fill:#FFC0BB;}
	.st21{fill:#F99893;}
	.st22{fill:#09083C;}
	.st23{opacity:0.5;fill:#97CEF7;}
	.st24{fill:#81CAEF;}
	.st25{fill:#EF5488;}
	.st26{fill:#EA426E;}
	.st27{fill:#F76390;}
	.st28{fill:#DAEEF7;}
	.st29{opacity:0.3;fill:#F99893;}
	.st30{fill:#FEB546;}
	.st31{opacity:0.5;fill:#E0A689;}
	.st32{fill:#C9EAFD;}
</style>
<rect x="0" class="st0" width="5600" height="2020"/>
<g>
	<path class="st1" d="M323,1999c0,0-358.5-214.8-172.4-822.3C336.8,569.2,242.1,8.1,1192.7,31.4c950.6,23.4,1094.8,349.3,1596.5,348
		c501.7-1.3,886.7-35.3,1327.2-3.6c551.6,39.7,1157.1,354.8,1308.9,749.7c151.7,394.9-52.7,866.5-52.7,866.5L323,1999z"/>
	<path class="st2" d="M4928.5,1380.8l-5.7,52.4c0,0,21.1,2.6,30.3,5.3c9.2,2.6,35.3-48.8,35.3-48.8s-27.8-11.9-29.2-11.9
		C4957.9,1377.8,4928.5,1380.8,4928.5,1380.8z"/>
	<g>
		<polygon class="st3" points="5228.9,1623.2 5254.7,1993 5241.8,1993 5200.8,1627.2 		"/>
		<polygon class="st3" points="4957.1,1623.2 4931.2,1993 4944.2,1993 4985.1,1627.2 		"/>
		<path class="st4" d="M5341.8,1223.1c0,0-206.8-6.1-220.2-5.2s-25.8,44-25.8,44s-60.4,224.1-59.2,230.3
			c1.2,6.2-56.4,150.6-56.4,150.6s49.7-1.3,51.9,0c2.2,1.3,192-16.3,194.7-18.1c2.6-1.8,12.3-34.8,12.7-36.5
			c0.4-1.8,14.9-130.3,14.9-130.3l7.5-70.9c0,0,28.6-60.8,29-61c0.4-0.2,26.8-53.5,28.6-56.1c1.8-2.6,29-32.1,29.9-34.8
			C5350.2,1232.5,5341.8,1223.1,5341.8,1223.1z"/>
		<path class="st5" d="M5341.8,1223.1c0,0-71.3-2.1-132.9-3.7c23.9,14.1,37.4,53.5,27.4,123.6c-8.5,59.6-17.9,124.2-55.4,201.7
			c-19.3,39.9-102.5,17.6-170.6,21.5c-14.7,38.1-30,76.6-30,76.6s49.7-1.3,51.9,0c2.2,1.3,192-16.3,194.7-18.1
			c2.6-1.8,12.3-34.8,12.7-36.5c0.4-1.8,14.9-130.3,14.9-130.3l7.5-70.9c0,0,28.6-60.8,29-61c0.4-0.2,26.8-53.5,28.6-56.1
			c1.8-2.6,29-32.1,29.9-34.8C5350.2,1232.5,5341.8,1223.1,5341.8,1223.1z"/>
		<g>
			<g>
				<path class="st6" d="M4942.4,1650.8L4942.4,1650.8c-0.4-7.1,4.9-13.2,11.9-13.7c22.1-1.5,69.9-4.9,119.1-9.6
					c94.2-8.9,128.3-16.3,140.5-20.1c4.2-1.3,7.4-4.7,8.5-9c3.3-13.2,5.2-40.5,6.9-63.4c6.2-86.8,16.3-229.9,105.5-308.5
					c5.6-4.9,14.1-4,18.6,1.9l0,0c4.1,5.4,3.4,13-1.7,17.5c-81.2,71.3-90.6,202.9-96.8,291c-3.6,50.2-5.8,74.9-16.7,86.3
					c-5.3,5.5-15.1,15.8-158.4,29.6c-50.8,4.9-100.9,8.5-123.7,10C4949,1663.3,4942.9,1657.9,4942.4,1650.8z M5220.3,1604.8
					L5220.3,1604.8L5220.3,1604.8z"/>
			</g>
		</g>
	</g>
	<path class="st7" d="M4948.6,1468.5c0,0,5.7-199,16.2-221.9c10.5-22.9,47.7-27.3,47.7-27.3s96.9-14.4,122.1,9.4
		c1.9,1.8,45.7,59.9,38.7,335.8c0,0-83.2-45.8-224.7-69.3V1468.5z"/>
	<g class="st8">
		<polygon class="st0" points="3256,932.4 3618.7,932.4 3785.3,564.4 3422.6,564.4 		"/>
		<polygon class="st0" points="3840.6,564.4 3674,932.4 4036.7,932.4 4203.3,564.4 		"/>
		<polygon class="st0" points="3072.7,1337.3 3435.4,1337.3 3602,969.3 3239.3,969.3 		"/>
		<polygon class="st0" points="3490.7,1337.3 3853.4,1337.3 4020,969.3 3657.3,969.3 		"/>
	</g>
	<rect x="2568.6" y="706.4" class="st9" width="47" height="190.6"/>
	<rect x="2838.2" y="857.3" class="st10" width="190.2" height="37.4"/>
	<rect x="2863.5" y="819.7" class="st9" width="190.2" height="37.4"/>
	<rect x="2824.1" y="783.1" class="st0" width="190.2" height="37.4"/>
	<rect x="2621.9" y="629.6" class="st0" width="48.1" height="264.6"/>
	<rect x="2518.8" y="658.8" class="st10" width="44.3" height="235.4"/>
	<polygon class="st10" points="2812.9,872.5 2773.1,892 2670.1,680.4 2709.8,661 	"/>
	<rect x="2483.6" y="892.8" class="st11" width="760.5" height="21.5"/>
	<g>
		<rect x="4299.3" y="743.6" class="st9" width="41.8" height="169.3"/>
		<rect x="4404.5" y="877.6" class="st0" width="168.9" height="33.3"/>
		<rect x="4427" y="844.2" class="st12" width="168.9" height="33.3"/>
		<rect x="4404.5" y="811.7" class="st9" width="168.9" height="33.3"/>
		<rect x="4346.7" y="675.4" class="st10" width="42.7" height="235"/>
		<rect x="4255" y="701.3" class="st0" width="39.3" height="209.1"/>
		<g>
			<rect x="4669.1" y="743.6" class="st9" width="41.8" height="169.3"/>
			<rect x="4716.4" y="675.4" class="st10" width="42.7" height="235"/>
			<rect x="4624.8" y="701.3" class="st0" width="39.3" height="209.1"/>
			<polygon class="st0" points="4886,891.1 4850.7,908.4 4759.2,720.5 4794.5,703.2 			"/>
		</g>
		<rect x="4223.8" y="909.2" class="st11" width="675.5" height="19.1"/>
	</g>
	<g>
		<path class="st0" d="M4887.7,1994l100.8-46.7c1.5-0.7,2.1-2.5,1.4-3.9l-2.6-5.6c-0.7-1.5-2.5-2.1-3.9-1.5l-100.8,46.7
			c-1.5,0.7-2.1,2.5-1.4,3.9l2.6,5.6C4884.4,1994,4886.2,1994.7,4887.7,1994z"/>
		<path class="st7" d="M4965.9,1903.9l17.6,28.9c2.2,3.6,1.7,7.9-1,9.2l-93.6,43.4c-2.4,1.1-5.6,0.7-8.2-1.7
			c-2.7-2.4-5-6.8-3.7-14.8c2.7-15.8,28-31.2,37.1-47.5c0.3-0.6,0.8-1,1.4-1.3l42.7-19.8C4960.7,1899.1,4963.9,1900.7,4965.9,1903.9
			z"/>
		<g>
			<path class="st0" d="M4929.4,1935.2L4929.4,1935.2c0.5-0.7,0.2-2-0.6-2.7c-3.8-3.3-14.2-10.9-24.9-3.4c-0.6,0.4-0.7,1.6-0.1,2.5
				l0,0c0.5,0.9,1.4,1.2,2,0.8c9.6-6.7,18.7,0,21.8,2.9C4928.3,1935.8,4929,1935.8,4929.4,1935.2z"/>
		</g>
		<g>
			<path class="st0" d="M4921.5,1943.6L4921.5,1943.6c0.5-0.7,0.2-2-0.6-2.7c-3.8-3.3-14.2-10.9-24.9-3.4c-0.6,0.4-0.7,1.6-0.1,2.5
				l0,0c0.5,0.9,1.4,1.2,2,0.8c9.6-6.7,18.7,0,21.8,2.9C4920.3,1944.2,4921.1,1944.2,4921.5,1943.6z"/>
		</g>
		<g>
			<path class="st0" d="M4914.2,1951.4L4914.2,1951.4c0.5-0.7,0.2-2-0.6-2.7c-3.8-3.3-14.2-10.9-24.9-3.4c-0.6,0.4-0.7,1.6-0.1,2.5
				l0,0c0.5,0.9,1.4,1.2,2,0.8c9.6-6.7,18.7,0,21.8,2.9C4913,1952.1,4913.8,1952.1,4914.2,1951.4z"/>
		</g>
		<path class="st13" d="M4957,1948.9c-1.9-21.3,5.9-30,12.5-33.5c1.5-0.8,3.3-0.2,4.2,1.3l9.8,16.1c2.2,3.6,1.7,7.9-1,9.2l-20.9,9.7
			C4959.5,1952.7,4957.2,1951.2,4957,1948.9z"/>
	</g>
	<g>
		<path class="st0" d="M4712,1996.1l107.1-29.6c1.6-0.4,2.5-2.1,2.1-3.7l-1.6-5.9c-0.4-1.6-2.1-2.5-3.6-2.1l-107.1,29.6
			c-1.6,0.4-2.5,2.1-2.1,3.7l1.6,5.9C4708.8,1995.7,4710.4,1996.6,4712,1996.1z"/>
		<path class="st7" d="M4803.8,1920.1l12.7,31.4c1.6,3.9,0.4,8.1-2.5,8.9l-99.4,27.5c-2.6,0.7-5.6-0.2-7.8-3
			c-2.3-2.8-3.9-7.5-1.2-15.2c5.2-15.1,32.7-26.2,44.4-40.8c0.4-0.5,1-0.9,1.6-1.1l45.3-12.5
			C4799.5,1914.5,4802.4,1916.6,4803.8,1920.1z"/>
		<g>
			<path class="st0" d="M4762.8,1944.9L4762.8,1944.9c0.6-0.7,0.5-2-0.2-2.8c-3.2-3.9-12.3-13-24.1-7.4c-0.7,0.3-0.9,1.4-0.5,2.4
				l0,0c0.4,0.9,1.2,1.4,1.9,1.1c10.6-5,18.4,3.1,21,6.4C4761.5,1945.4,4762.3,1945.5,4762.8,1944.9z"/>
		</g>
		<g>
			<path class="st0" d="M4753.6,1952L4753.6,1952c0.6-0.7,0.5-2-0.2-2.8c-3.2-3.9-12.3-13-24.1-7.4c-0.7,0.3-0.9,1.4-0.5,2.4l0,0
				c0.4,0.9,1.2,1.4,1.9,1.1c10.6-5,18.4,3.1,21,6.4C4752.3,1952.4,4753.1,1952.5,4753.6,1952z"/>
		</g>
		<g>
			<path class="st0" d="M4745.1,1958.5L4745.1,1958.5c0.6-0.7,0.5-2-0.2-2.8c-3.2-3.9-12.3-13-24.1-7.4c-0.7,0.3-0.9,1.4-0.5,2.4
				l0,0c0.4,0.9,1.2,1.4,1.9,1.1c10.6-5,18.4,3.1,21,6.4C4743.8,1958.9,4744.6,1959.1,4745.1,1958.5z"/>
		</g>
		<path class="st13" d="M4787.7,1963c1.6-21.3,10.7-28.6,17.8-31c1.6-0.5,3.3,0.3,4,1.9l7.1,17.5c1.6,3.9,0.4,8.1-2.5,8.9l-22.2,6.1
			C4789.6,1967.1,4787.5,1965.3,4787.7,1963z"/>
	</g>
	<g>
		<path class="st14" d="M4971.2,1389.7c1.8-15.8,3.4-30.3,3.4-32.2c0-4.4-12-111-12-111s-29.5,64.3-36.5,136.5
			C4935.2,1387.6,4949.8,1392.1,4971.2,1389.7z"/>
		<path class="st15" d="M4964.7,1432.5l1.4,0.7c0,0,0.1-1.1,0.4-3C4965.9,1431,4965.3,1431.8,4964.7,1432.5z"/>
	</g>
	<path class="st16" d="M4966.1,1495.2c0,0-241.4,27-254.3,109.2c-12.9,82.2,38.1,324.4,38.1,324.4s40.4-2.7,55.7-12.1
		c0,0-15.2-270.1,7-287.7c22.3-17.6,144.1-59.9,146.5-64.6C4961.4,1559.8,4966.1,1495.2,4966.1,1495.2z"/>
	<path class="st17" d="M4966.1,1495.2c0,0-160.5,88.1-160.5,139.7s62.1,244.3,107.8,286.5c0,0,28.1-4.7,52.7-17.6l-55.1-248.9
		c0,0,244.9-32.9,260.1-90.4l-60.2-63.4L4966.1,1495.2z"/>
	<rect x="4421.2" y="1495.2" class="st18" width="18.2" height="497.3"/>
	<rect x="4592.6" y="1495.2" class="st18" width="18.2" height="497.3"/>
	<rect x="5111" y="1495.2" class="st18" width="18.2" height="497.3"/>
	<rect x="5282.4" y="1495.2" class="st18" width="18.2" height="497.3"/>
	<path class="st19" d="M5343.7,1501.1h-963.1c-4.4,0-8-3.6-8-8v-15.7c0-4.4,3.6-8,8-8h963.1c4.4,0,8,3.6,8,8v15.7
		C5351.7,1497.5,5348.1,1501.1,5343.7,1501.1z"/>
	<path class="st20" d="M5065.7,1179.7v49.7c0,2.8-1.6,5.3-4.1,6.4c-7.6,3.6-24.5,9.4-40.4,0.1c-2.1-1.3-3.4-3.6-3.4-6.1V1185
		L5065.7,1179.7z"/>
	<path class="st21" d="M5065.7,1206.3v-26.6l-47.8,5.3v22.6C5026.9,1210.3,5043.6,1213,5065.7,1206.3z"/>
	<path class="st21" d="M4987.4,1126.2c2.6,7.9-0.4,15.9-6.7,18c-6.3,2.1-13.5-2.6-16.1-10.5c-2.6-7.9,0.4-15.9,6.7-18
		C4977.6,1113.6,4984.8,1118.4,4987.4,1126.2z"/>
	<path class="st20" d="M4986.5,1171.2c-1.7-3.4-3-7.1-4.1-10.8c-3-10.1-4.1-20.7-4.4-29.9c-0.1-2-0.2-3.9-0.4-5.9
		c-0.8-7.9-0.2-16.2,2.2-24.6c7.8-27.1,32.9-46.1,61-46.3c37.9-0.2,66.9,31.7,64.4,68.6c4.1-1.9,8.7-2.2,12.5-0.1
		c7.3,3.9,9.3,14.6,4.5,23.8c-4.9,9.2-14.8,13.5-22.2,9.6c-1-0.5-1.9-1.2-2.7-2c-5.3,31.1-32.6,53.5-63.3,50.9
		c-15-1.3-28.2-8.3-37.8-18.9c-0.6-0.6-1.3-1.3-2-2.2C4991,1179.7,4988.5,1175.6,4986.5,1171.2z"/>
	
		<ellipse transform="matrix(-0.9964 -8.535268e-002 8.535268e-002 -0.9964 9991.5537 2675.9158)" class="st17" cx="5053" cy="1124.4" rx="5.6" ry="5.6"/>
	
		<ellipse transform="matrix(-0.9964 -8.527149e-002 8.527149e-002 -0.9964 9895.7402 2669.5061)" class="st17" cx="5004.9" cy="1123.4" rx="5.6" ry="5.6"/>
	<path class="st17" d="M5041.6,1112.2c2.8-0.9,5.5-1.6,8.2-2c2.7-0.4,5.3-0.4,7.8-0.1c2.5,0.4,5.1,1,7.5,2.2l0.9,0.4
		c0.3,0.1,0.6,0.3,0.9,0.5l1.8,1c1.2,0.7,2.4,1.5,3.7,2.2c-0.7-1.3-1.5-2.6-2.5-3.7c-1.1-1-2-2.3-3.3-3.1c-2.4-1.9-5.5-3-8.6-3.4
		c-3.1-0.4-6.3,0-9.2,1C5046.2,1108.3,5043.5,1109.9,5041.6,1112.2z"/>
	<g>
		<polygon class="st3" points="4128.9,1623.2 4154.7,1993 4141.8,1993 4100.8,1627.2 		"/>
		<polygon class="st3" points="3857.1,1623.2 3831.2,1993 3844.2,1993 3885.1,1627.2 		"/>
		<path class="st4" d="M4241.8,1223.1c0,0-206.8-6.1-220.2-5.2s-25.8,44-25.8,44s-60.4,224.1-59.2,230.3
			c1.2,6.2-56.4,150.6-56.4,150.6s49.7-1.3,51.9,0c2.2,1.3,192-16.3,194.7-18.1c2.6-1.8,12.3-34.8,12.7-36.5
			c0.4-1.8,14.9-130.3,14.9-130.3l7.5-70.9c0,0,28.6-60.8,29-61c0.4-0.2,26.8-53.5,28.6-56.1c1.8-2.6,29-32.1,29.9-34.8
			C4250.2,1232.5,4241.8,1223.1,4241.8,1223.1z"/>
		<path class="st5" d="M4241.8,1223.1c0,0-71.3-2.1-132.9-3.7c23.9,14.1,37.4,53.5,27.4,123.6c-8.5,59.6-17.9,124.2-55.4,201.7
			c-19.3,39.9-102.5,17.6-170.6,21.5c-14.7,38.1-30,76.6-30,76.6s49.7-1.3,51.9,0c2.2,1.3,192-16.3,194.7-18.1
			c2.6-1.8,12.3-34.8,12.7-36.5c0.4-1.8,14.9-130.3,14.9-130.3l7.5-70.9c0,0,28.6-60.8,29-61c0.4-0.2,26.8-53.5,28.6-56.1
			c1.8-2.6,29-32.1,29.9-34.8C4250.2,1232.5,4241.8,1223.1,4241.8,1223.1z"/>
		<g>
			<g>
				<path class="st6" d="M3842.4,1650.8L3842.4,1650.8c-0.4-7.1,4.9-13.2,11.9-13.7c22.1-1.5,69.9-4.9,119.1-9.6
					c94.2-8.9,128.3-16.3,140.5-20.1c4.2-1.3,7.4-4.7,8.5-9c3.3-13.2,5.2-40.5,6.9-63.4c6.2-86.8,16.3-229.9,105.5-308.5
					c5.6-4.9,14.1-4,18.6,1.9l0,0c4.1,5.4,3.4,13-1.7,17.5c-81.2,71.3-90.6,202.9-96.8,291c-3.6,50.2-5.8,74.9-16.7,86.3
					c-5.3,5.5-15.1,15.8-158.4,29.6c-50.8,4.9-100.9,8.5-123.7,10C3849,1663.3,3842.9,1657.9,3842.4,1650.8z M4120.3,1604.8
					L4120.3,1604.8L4120.3,1604.8z"/>
			</g>
		</g>
	</g>
	<path class="st17" d="M5019.1,1111.5c-1.7-2.4-4.2-4.3-7-5.5c-2.8-1.3-5.9-1.9-9.1-1.7c-3.1,0.2-6.2,1.1-8.8,2.8
		c-1.4,0.7-2.4,1.9-3.5,2.8c-1,1.1-1.9,2.3-2.7,3.5c1.4-0.6,2.6-1.3,3.9-1.9l1.9-0.8c0.3-0.1,0.6-0.3,0.9-0.4l1-0.3
		c2.5-1,5.1-1.4,7.6-1.6c2.6-0.2,5.2,0,7.8,0.6C5013.7,1109.5,5016.4,1110.4,5019.1,1111.5z"/>
	<path class="st21" d="M5029.6,1117.2c-2.3,2.8-4.3,5.7-6.2,8.8c-1.9,3-3.6,6.2-5.1,9.5c-0.7,1.7-1.4,3.4-1.7,5.3
		c-0.1,0.5-0.1,1-0.2,1.5c0,0.3,0,0.6,0,0.8c0.1,0.3,0.1,0.6,0.3,0.9c0.1,0.2,0.2,0.3,0.3,0.5l0.2,0.3c0.2,0.2,0.3,0.4,0.5,0.5
		c0.4,0.3,0.7,0.7,1.1,0.9c1.4,1.2,3,2.1,4.6,2.9c1.6,0.8,3.3,1.5,5,2.1c-3-2-6-3.9-8.5-6.3c-0.3-0.3-0.6-0.6-0.9-0.9l-0.4-0.5
		l-0.2-0.2c0,0,0-0.1,0-0.1c-0.2-0.4-0.1-1.3,0.1-2c0.4-1.6,1-3.2,1.7-4.8c1.4-3.2,3-6.4,4.6-9.6
		C5026.5,1123.7,5028.1,1120.5,5029.6,1117.2z"/>
	<path class="st17" d="M5089.4,1040.6c0,0-17.6-16.4-59-15.1s-49.9,23.4-53.2,55.1l-0.1,34.9c0,0,12.3-8.1,27.3-39.2
		c0,0,22.2,27.5,32.4,24.6c10.2-2.9-3.1-22.6-3.1-22.6s43.7,43.6,71.4,44.4c0,0,18.2-48.9-1.8-67.5c0,0,15.5,1.2,16.4-1.9
		c0.9-3.1-7.1-8.1-22.1-6.8c0,0,11.3-21.2,5.4-23.6C5097.3,1020.5,5089.4,1040.6,5089.4,1040.6z"/>
	<path class="st0" d="M5011.1,1163c1.8,6.8,9.8,11.9,19.4,11.8c9.6-0.1,17.5-5.3,19.2-12.1L5011.1,1163z"/>
	<g>
		<path class="st22" d="M1962.6,1406.8H749.7c-13.3,0-24-10.7-24-24V646.5c0-13.3,10.7-24,24-24h1224.4c6.9,0,12.5,5.6,12.5,12.5
			v747.7C1986.6,1396,1975.8,1406.8,1962.6,1406.8z"/>
		<path class="st10" d="M1958.9,1376.6H752.7c-2.7,0-4.9-2.2-4.9-4.9V657.5c0-2.7,2.2-4.9,4.9-4.9h1206.3c2.7,0,4.9,2.2,4.9,4.9
			v714.2C1963.8,1374.4,1961.6,1376.6,1958.9,1376.6z"/>
		<path class="st23" d="M1963.8,738.8V661c0-4.6-3.1-8.4-7-8.4H754.7c-3.8,0-7,3.7-7,8.4v489.5L1963.8,738.8z"/>
	</g>
	<g>
		<polygon class="st20" points="749.4,990 749.5,1000 750.6,1024.6 702.1,1018.2 696.8,1011 696.4,992.3 694.8,974.8 727,974.8 		
			"/>
		<path class="st20" d="M794.1,1591.4c0,0,2.4,10.9,0,24.9c-2.4,14-65.4,345.8-65.4,345.8l33.2,4.9c0,0,108.4-308.1,114.5-328.8
			c6.1-20.6,12.7-49.7-7.9-72.2C848,1543.5,794.1,1591.4,794.1,1591.4z"/>
		<path class="st20" d="M811.6,1971.6l-39.8-48l-39.8,16.5l10,13.8l43.3,21.8c0,0,18.5,3.7,19.5,3.5
			C805.8,1978.9,811.6,1971.6,811.6,1971.6z"/>
		<path class="st3" d="M811.6,1971.6l8.6,10.8c4,4.9-0.9,12.1-6.9,10.1l-83.4-27.7c-2.9-1-4.5-4.2-3.6-7.1l5.8-17.5
			C781.8,1976.3,802.8,1977.3,811.6,1971.6z"/>
		<path class="st3" d="M674.1,856.9c0,0-20.8-13.6-44.4,0c-23.6,13.6-23.6,59.5-14.3,70.5c9.3,11-0.5,25.9,18.1,40.2
			c18.6,14.3,48.2,19.6,65.2,2.9c16.9-16.8,4.5-54.1,4.5-54.1L674.1,856.9z"/>
		<path class="st20" d="M755.5,1973.9l-45.7-28.5l-39.7,23.8l13.8,9.9l47.9,7c0,0,18.7-2.3,19.6-2.9
			C752.3,1982.6,755.5,1973.9,755.5,1973.9z"/>
		<path class="st20" d="M645.3,1559.9c0,0,6.5,158.1,7.1,185.4c0.6,27.3,14.5,229.9,20.6,247.5l33.9-2.4c0,0,23.1-392.3,15.9-430.5
			C715.6,1521.7,645.3,1559.9,645.3,1559.9z"/>
		<path class="st20" d="M572.7,1430.8c-11.7-2.4-14.6,5.1-26.4,2.7l2.8,18.3c-1.6,3.5-5.1,13-5.1,13c-13.2,38.2-12.4,34.1-11.1,34.8
			c1.3,0.7,11.2-13.4,12.3-12.1c1.1,1.3-5.7,24-3.6,23.4c2-0.6,10.8-20.8,12-20.1c1.1,0.8-5.7,22.6-2.8,23.4
			c3,0.8,9.7-23.4,11.8-21.8c2.1,1.6-5.4,26.2-2.6,26.4c2.4,0.2,11.4-27.1,14.3-35.8c0.4-1.1,1.8-1.4,2.6-0.5
			c11.3,14.2,13,14.6,14.3,13c0.9-1.1-4.9-16.6-9.6-31.3l-6.2-18L572.7,1430.8z"/>
		<path class="st3" d="M755.5,1973.9l11.6,7.5c5.4,3.4,2.9,11.7-3.4,11.7h-87.9c-3.1,0-5.6-2.5-5.6-5.6v-18.4
			C728.7,1987.8,748.9,1982.1,755.5,1973.9z"/>
		<path class="st20" d="M1036.9,1009.6c0.2,1.1,1.6,1.5,2.4,0.7c6.2-6.1,25.6-25.3,27.6-24.1c2.3,1.4-14.7,19-13.6,21.3
			c1.1,2.2,17.3-15.3,19.4-13.4c2.2,1.9-13.1,17.5-12.4,18.6c0.6,1.1,16.8-12.2,18.8-11.8c2,0.4-13.6,16.7-13.2,18.3
			c0.4,1.6,14.9-6.1,15.7-4.9c0.8,1.2,1.5,1.8-26.1,28.5l-11.3,10l-13.7,3.2l-9.6-13.9c0,0,7.9-48.9,9.7-49.7
			C1032.2,991.5,1033.4,992.6,1036.9,1009.6z"/>
		<path class="st22" d="M667.8,1559.9l28.1,104.3c64.9-0.1,161.8-6.1,210-38.3c0,0-62.9-293-104.7-366.4l-143.5-7.9
			c0,0-99.5,138.9-26.8,410.6c0,0,12.4,0.9,32.2,1.5L667.8,1559.9z"/>
		<path class="st21" d="M790.3,912c-3,8.1-0.1,16.6,6.3,18.9c6.5,2.4,14.1-2.2,17.1-10.3c3-8.1,0.1-16.6-6.3-18.9
			C800.9,899.3,793.2,903.9,790.3,912z"/>
		<path class="st21" d="M694.3,970.3c0,0,1.3,10,2.1,22c10.8,8.8,24.9,13.3,39.5,11.4c4.8-0.6,9.4-1.9,13.6-3.7
			c-0.3-7.9-0.2-15.1,1-18.6C753.8,971.8,694.3,970.3,694.3,970.3z"/>
		<path class="st0" d="M797.5,1021l135.9,103.2l87-89.4c0,0,26,20.1,26,19.8c0-0.4-81.8,127.8-101.9,134.5
			c-20.1,6.7-149.7-83.8-149.7-83.8L797.5,1021z"/>
		<path class="st20" d="M789.6,958.7c1.9-3.5,3.4-7.2,4.6-11.1c3.5-10.4,5-21.3,5.6-30.9c0.1-2,0.4-4.1,0.7-6.1
			c1.1-8.2,0.8-16.8-1.4-25.6c-7.1-28.3-32.5-49-61.6-50.2c-39.3-1.6-70.6,30.5-69.3,68.8c-4.2-2.2-8.9-2.5-13-0.6
			c-7.8,3.8-10.2,14.8-5.5,24.5c4.7,9.7,14.9,14.5,22.6,10.7c1.1-0.5,2-1.2,2.9-2c4.4,32.5,31.9,56.7,63.9,55.1
			c15.6-0.8,29.6-7.7,39.9-18.3c0.7-0.6,1.4-1.3,2.2-2.2C784.6,967.3,787.3,963.1,789.6,958.7z"/>
		
			<ellipse transform="matrix(0.9987 -5.101525e-002 5.101525e-002 0.9987 -45.644 38.1017)" class="st17" cx="723.6" cy="913.2" rx="6.2" ry="6.3"/>
		
			<ellipse transform="matrix(0.9987 -5.101329e-002 5.101329e-002 0.9987 -45.5755 40.7151)" class="st17" cx="774.8" cy="913.2" rx="6.2" ry="6.3"/>
		<g>
			<g>
				<path class="st21" d="M748.9,900.9c0,2-0.1,4,0,6c0.1,2,0.2,4,0.4,6c0.2,2,0.5,4,1,5.9c0.5,1.9,1.1,3.8,2.2,5.3
					c0.1,0.2,0.3,0.4,0.4,0.5c0.2,0.2,0.3,0.3,0.5,0.5c0.2,0.2,0.4,0.4,0.6,0.6c0.2,0.2,0.3,0.4,0.5,0.6c0.6,0.9,1.1,1.9,1.2,3
					c0.3,2.2-0.6,4.4-2,5.9c-1.4,1.6-3.2,2.7-5.2,3.4c-1.9,0.7-4,1-6,1c1-0.1,2-0.3,3-0.5c1-0.2,1.9-0.6,2.8-1
					c1.8-0.8,3.5-1.9,4.7-3.4c1.2-1.5,1.9-3.4,1.6-5.2c-0.1-0.9-0.5-1.8-1.1-2.5c-0.1-0.2-0.3-0.4-0.4-0.5c-0.1-0.2-0.3-0.3-0.5-0.5
					l-0.6-0.6c-0.2-0.2-0.4-0.4-0.5-0.6c-0.6-0.9-1.1-1.8-1.5-2.8c-0.4-1-0.7-2-0.9-3c-0.4-2-0.7-4-0.8-6.1
					C748.2,909,748.3,904.9,748.9,900.9z"/>
			</g>
		</g>
		<path class="st0" d="M815.5,1155.8c0.5-0.5,21.3-22.8,17.3-64.6c-2.2-22.7-13.9-43.4-24.2-57.7c-9.2-12.7-23.7-20.3-39.3-20.6
			c-28.5-0.5-74-1.2-74-1.2s-58.7-6.5-77.3,16.5c-18.6,23-81.6,182.3-85.2,258.4c-3.6,76.1,15,165.8,15,165.8s20.8,1.4,30.1,0
			c9.3-1.4-2.1-147.1,7.9-170.8c10-23.7,55.1-137.1,58-147.8l11.2,59.4c2.1,10.9,1.1,22.2-2.8,32.7c-9.5,25.6-27.8,74.8-35.2,93
			c0,0,141,22.7,210.5-11.7l-0.6-2.7C815.1,1255.8,811.4,1205.6,815.5,1155.8z"/>
		<g>
			<g>
				<path class="st3" d="M735,902.4c-2.8-1.5-5.8-2.6-8.8-3.4c-3-0.7-6.1-1-9.1-0.7c-1.5,0.1-3,0.4-4.5,0.8
					c-0.7,0.2-1.5,0.5-2.2,0.7c-0.4,0.1-0.7,0.3-1.1,0.4c-0.4,0.1-0.7,0.3-1.1,0.5c-2.8,1.3-5.4,3.1-8,5c1.9-2.6,4.3-4.8,7.2-6.6
					c1.4-0.9,2.9-1.6,4.5-2.1c1.6-0.5,3.2-0.9,4.9-1c3.3-0.3,6.7,0.1,9.8,1.3c1.6,0.5,3,1.3,4.4,2.1
					C732.6,900.3,733.9,901.3,735,902.4z"/>
			</g>
		</g>
		<g>
			<g>
				<path class="st3" d="M760.2,902.4c1.1-1.2,2.5-2.1,3.9-3c1.4-0.8,2.9-1.5,4.4-2.1c3.1-1.1,6.5-1.6,9.8-1.3
					c1.7,0.1,3.3,0.5,4.9,1c1.6,0.5,3.1,1.2,4.5,2.1c2.8,1.7,5.3,4,7.2,6.6c-2.6-1.9-5.2-3.7-8-5c-0.3-0.2-0.7-0.3-1.1-0.5
					c-0.4-0.1-0.7-0.3-1.1-0.4c-0.7-0.2-1.4-0.5-2.2-0.7c-1.5-0.4-3-0.7-4.5-0.8c-3-0.3-6.1,0-9.1,0.7
					C766,899.8,763.1,900.9,760.2,902.4z"/>
			</g>
		</g>
		<path class="st20" d="M684.1,1011c0,0,44.9,57,54.4,77.5c0,0,26.3-34.6,27.5-75.9L684.1,1011z"/>
		<path class="st24" d="M738.6,1088.6c1.2,19.8,2,39.5,2.4,59.3c0.3,9.9,0.3,19.8,0.5,29.7c0,9.9,0.1,19.8,0,29.7
			c0,5-0.1,9.9-0.2,14.8c-0.1,4.9-0.2,9.9-0.3,14.8c-0.3,9.9-0.6,19.8-1.2,29.7c-1,19.8-2.5,39.6-5.4,59.2l0.5-7.4l0.6-7.4
			c0.3-4.9,0.5-9.9,0.8-14.8l0.2-3.7l0.1-3.7l0.3-7.4l0.3-7.4l0.2-7.4c0.6-19.8,0.9-39.5,1-59.3c0.2-19.8,0.2-39.6,0.3-59.3
			L738.6,1088.6z"/>
		<path class="st24" d="M648.5,1115c-0.3,1.6-0.5,3.2-0.9,4.8c-0.3,1.6-0.6,3.2-1.1,4.7c-0.8,3.1-1.7,6.3-3,9.2
			c0.9-3.1,1.6-6.2,2.2-9.4c0.6-3.2,1-6.3,1.4-9.5c0.8-6.4,1.2-12.8,1.3-19.2l0.1-4.8l0-4.8c0.1-3.2-0.2-6.4-0.2-9.6
			c0-1.6-0.2-3.2-0.2-4.8l-0.2-4.8c-0.2-3.2-0.5-6.4-0.7-9.7c0.5,3.2,1,6.4,1.4,9.6c0.3,3.2,0.7,6.4,0.9,9.7l0.3,4.8
			c0.1,1.6,0.1,3.2,0.2,4.9l0.1,4.9L648.5,1115z"/>
		<path class="st3" d="M796.7,850.8c-12.3-42.3-68.4-43.8-68.4-43.8c-86.8,6-73.1,82.3-70.2,94.9c2.5-0.6,6-0.5,10.2,1.8
			c1.8,1,3.2,2,4.4,3c10.2-3.1,13.3-20.1,18.6-28.3c7.2-11.1,38.8-5.4,50.8-13.3c12-7.9,13.2-20.1,13.2-20.1
			c46.3,7.4,45.6,56.4,45.6,56.4c2-0.4,4.5-0.2,4.5-0.2S807.6,888.6,796.7,850.8z"/>
		<path class="st0" d="M765.9,947.1c-1.6,6.5-9.1,11.5-18.3,11.6c-9.2,0.1-16.8-4.7-18.5-11.2L765.9,947.1z"/>
	</g>
	<g>
		<ellipse class="st22" cx="1211" cy="324.4" rx="199.2" ry="199.7"/>
		<path class="st0" d="M1381.3,313.6c5.9,94.2-65.5,175.4-159.6,181.3c-94,5.9-175-65.7-180.9-159.9
			c-5.9-94.2,65.5-175.4,159.6-181.3C1294.4,147.8,1375.4,219.4,1381.3,313.6z"/>
		<g>
			<rect x="1027.5" y="321" class="st22" width="62.9" height="4.8"/>
			<rect x="1332" y="321" class="st22" width="62.9" height="4.8"/>
			<rect x="1208.3" y="141.8" class="st22" width="4.8" height="63"/>
			<rect x="1208.3" y="445.6" class="st22" width="4.8" height="63"/>
			<ellipse class="st22" cx="1211" cy="324.4" rx="5.2" ry="5.2"/>
			<g>
				<path class="st22" d="M1211,326.7c-0.6,0-1.2-0.2-1.6-0.7l-93.5-93.7c-0.9-0.9-0.9-2.4,0-3.3c0.9-0.9,2.4-0.9,3.3,0l93.5,93.7
					c0.9,0.9,0.9,2.4,0,3.3C1212.2,326.5,1211.6,326.7,1211,326.7z"/>
			</g>
			<g>
				<path class="st22" d="M1241.1,419.1c-0.4-0.2-0.7-0.5-0.8-1l-30.2-91.5c-0.3-0.9,0.2-1.8,1.1-2.1c0.9-0.3,1.8,0.2,2.1,1.1
					l30.2,91.5c0.3,0.9-0.2,1.8-1.1,2.1C1241.9,419.3,1241.5,419.3,1241.1,419.1z"/>
			</g>
		</g>
	</g>
	<g>
		<path class="st20" d="M5067.2,1289.1c0-0.1,0-0.1,0.1-0.2C5067.2,1289,5067.2,1289,5067.2,1289.1z"/>
		<path class="st20" d="M5068.4,1284.7c0-0.1,0.1-0.2,0.1-0.3C5068.5,1284.6,5068.5,1284.7,5068.4,1284.7z"/>
		<path class="st20" d="M5069.7,1280.5c0-0.1,0-0.1,0-0.2C5069.7,1280.4,5069.7,1280.4,5069.7,1280.5z"/>
		<path class="st20" d="M5071.9,1272.7c0,0,0-0.1,0-0.1C5071.9,1272.6,5071.9,1272.7,5071.9,1272.7z"/>
		<path class="st20" d="M5074.7,1262.9c0-0.1,0.1-0.2,0.1-0.3C5074.8,1262.7,5074.7,1262.8,5074.7,1262.9z"/>
		<path class="st20" d="M5108.3,1423.5c-45.4-1.8-77.3-32.8-77.3-32.8c0,0,0,0,0,0c-1.5,2.4-2.9,4-4.1,4.7
			c-14.1,7.9-191.9,46-209.5,44.5c-17.6-1.5-34.1,16-37.6,29.5h65.2h4.5h228.4C5077.9,1469.4,5109.2,1421.8,5108.3,1423.5z"/>
		<path class="st20" d="M5073.8,1265.9c0-0.1,0-0.1,0.1-0.2C5073.9,1265.7,5073.9,1265.8,5073.8,1265.9z"/>
		<path class="st20" d="M5072.9,1269.3c0-0.1,0.1-0.3,0.1-0.4C5073,1269,5072.9,1269.2,5072.9,1269.3z"/>
	</g>
	<path class="st14" d="M5087.8,1238.8c-6.3,6.3-10.7,14.3-13.1,23c-7.6,27.2-34,106.8-47.3,128c0,0,35.6,35.8,80.9,37.6
		c15.8-28.1,31.8-68.2,35.1-107.1C5149.3,1251.4,5117.2,1209.4,5087.8,1238.8z"/>
	<g>
		<path class="st11" d="M3148.4,767.8c-0.7-6.2-1.5-12.6-4.4-18.1c-3.5-6.8-9.7-11.6-15.1-17c-10.1-10-17.8-22.4-22.5-35.8
			c-3.6-10.4-5.4-21.5-10.3-31.3c-3-6-7.2-11.4-10.6-17.1c-8.1-13.6-12.6-29.7-23.6-41.2c-2.1,13.8,2.1,28.5,11.2,39.1
			c2.7,3.2,5.9,6,7.9,9.6c3.8,6.6,3.4,14.6,3.9,22.2c0.8,14.2,4.8,28.2,11.6,40.7c7.2,13.3,17.7,25.1,21.5,39.7
			c2.9,11,2,23.3,8.2,32.7c0.7,1,1.4,2.1,1.6,3.3c0.1,0.7,0,1.4-0.1,2.1c-0.1,0.9-0.3,1.8-0.4,2.6c-1.4,9-2.9,20.4,4.8,27.1
			c5.3,4.7,12.2,4.8,16.1-1.4c3.9-6.2,3.5-15.3,3.2-22.3C3150.9,791.1,3149.7,779.4,3148.4,767.8z"/>
		<path class="st10" d="M3162.2,760.6c-3-10.4-7.7-20.3-10-30.8c-2.3-10.2-2.3-20.8-2.3-31.3c0-11.5,0-23,0-34.5
			c0-7.2,0-14.3-1.2-21.4c-2.5-15.2-10.4-29.2-11.8-44.5c-0.6-6.6,0.1-13.3-0.6-19.9c-0.4-3.8-1.4-7.6-3.1-11
			c-1.9-3.6-7.1-3.4-8.8,0.2c-3.8,8.3-6.3,17.3-4.7,26.2c0.9,5.3,3.2,10.3,5,15.4c7.7,22.9,3.6,48.2,9.5,71.5
			c1.8,7.1,4.5,14,4.8,21.2c0.8,17.4-12.2,33.3-11.1,50.7c1,14.3,11.2,26,15.5,39.7c2.4,7.6,2.9,15.8,5.5,23.3
			c2,5.9,6.7,13,13.9,11.2c6.9-1.7,4.8-7.3,4.5-12.7C3166.4,795.9,3167.4,778.3,3162.2,760.6z"/>
		<path class="st11" d="M3178,770.1c-0.3-5.4-1.2-10.8-0.5-16.2c0.6-4.5,2.4-8.8,3.7-13.2c2.4-8.2,3-16.8,3.6-25.3
			c1.1-15.5,2.1-31,3.2-46.5c1.6-24.1,3.3-48.3,7.8-72c1.3-6.6,2.7-13.7-0.3-19.7c-0.6-1.3-1.9-2.6-3.2-2.2c-1,0.3-1.4,1.4-1.8,2.3
			c-9.9,26.8-13.6,55.6-24.6,81.9c-2.6,6.3-5.7,12.5-7.1,19.2c-1.6,8-0.7,16.4-0.5,24.6c0.3,11.8-0.8,23.6-4.1,34.9
			c-1.7,5.9-4,11.7-4.9,17.8c-1.2,7.6-0.2,15.3,0.5,23c1.4,14.7,1.9,29.5,1.4,44.2c-0.3,8.7,7.1,8.5,11.9,3.1
			c3.4-3.7,3.4-7.8,4.5-12.5C3171.6,798.3,3178.9,786.6,3178,770.1z"/>
		<path class="st10" d="M3132.2,793.6c-6.5-10.4-19.4-16.3-23.5-27.9c-1.1-2.9-1.5-6.1-2.8-8.9c-2.9-6.3-9.4-9.9-15.7-12.8
			c-0.9-0.4-1.9,0.2-1.9,1.2l0,0c0,1.6,0.7,3,2,3.9c4.9,3.3,8.7,8.4,10.3,14.1c2,6.8,1.1,14.2,3.6,20.8c2.1,5.5,6.3,10.1,8.3,15.6
			c1.8,5.1,1.6,10.7,2.5,16c0.9,5.3,3.2,11,8.1,13.3C3140.8,837.1,3136.4,800.3,3132.2,793.6z"/>
		<path class="st11" d="M3206,790.2c-0.3,5,0.5,10.3-1.5,14.9c-1.3,3-3.5,5.4-5.4,8c-6.5,9.2-8.9,22.3-18.9,27.5
			c-0.7,0.3-1.4,0.7-2.1,0.5c-1-0.2-1.7-1.2-2.1-2.1c-2.5-5.7,0.3-12.2,1.9-18.2c0.3-1.1,0.5-2.2,0-3.2c-0.6-1.1-1.8-1.5-2.7-2.4
			c-1.7-1.7-1.6-4.4-1.2-6.8c0.9-5.9,2-11.8,3.6-17.6c0.9-3.3,1.9-6.6,3.8-9.4c2.1-3.1,5.1-5.4,7.9-7.8
			c12.5-10.7,22.1-24.9,27.4-40.5c1.2-3.4,2.2-6.9,4.6-9.6s6.7-4,9.6-2c2.1,1.5-6.4,15.1-7.4,16.8c-2.8,4.7-2.9,8.8-4.5,14
			C3215.1,765.1,3206.7,776.5,3206,790.2z"/>
		<path class="st10" d="M3196.1,796c1.9-4.8,3.7-9.7,4.3-14.8c0.7-5.7-0.2-11.5,0.7-17.1c1.2-7.2,5.5-13.6,7.6-20.7
			c1.5-5.1,1.9-10.4,2.8-15.7c2.6-15,9.6-29.6,7.6-44.6c-0.4-3.3-1.9-7.1-5.2-7.7c-2.9-0.5-5.6,2.2-6.4,5.1c-0.8,2.9-0.2,5.9,0,8.9
			c0.6,8.3-1.8,16.8-6.6,23.6c-4.6,6.5-11.3,11.5-15.5,18.3c-5.1,8.4-5.8,18.6-8.4,28.1c-5.2,18.9-18.2,35.3-20.5,54.7
			c-0.9,7.7,0.9,17.1,8,20.2C3185.2,843.3,3191.4,808.1,3196.1,796z"/>
		<path class="st0" d="M3160.1,810.2h-3.3h-44c-3.2,0-5.6,3-4.9,6.2l17.2,72.7c0.5,2.3,2.6,3.9,4.9,3.9h26.8h3.3h26.8
			c2.3,0,4.3-1.6,4.9-3.9l17.2-72.7c0.7-3.2-1.6-6.2-4.9-6.2H3160.1z"/>
	</g>
	<path class="st17" d="M3852.7,1136.9c10.4-40.6,27-56.7,55.8-71.8c22.1-11.6,48.1-15.3,74.9-6.7c54.5,17.7,68.6,77.4,74.1,108.4
		c18.8,105.4,106.9,195,74.8,267.1c-32.1,72.1-182.6,64.4-182.6,64.4l-69-49.8c0,0-6.1-121.1-6.1-131c0-9.9-26.2-9.2-26.2-58.7
		C3848.4,1219.3,3840.4,1184.6,3852.7,1136.9z"/>
	<path class="st20" d="M3669.9,1285.9c-0.1,1.2-1.5,1.9-2.5,1.1c-7.5-5.8-31.1-24.1-33-22.5c-2.3,1.9,18.5,18.7,17.5,21.3
		c-0.9,2.6-20.7-14.3-22.8-11.9c-2.1,2.4,16.5,17.2,15.9,18.5c-0.5,1.3-19.9-11-21.9-10.3s16.9,16.3,16.7,18.1
		c-0.2,1.8-16.9-4.6-17.6-3.3s-1.4,2.2,32.1,27.4l13.6,9.4l15.2,1.6l8.6-16.3c0,0-14.9-51.9-17.1-52.6
		C3672.6,1265.7,3671.4,1267.1,3669.9,1285.9z"/>
	<path class="st25" d="M3897.8,1262.1c0,0-116.7,132.4-121.6,133c-4.9,0.6-83.1-91-83.1-91s-28,23.3-32.9,31.4
		c0,0,83.6,139.3,105,147.2c21.5,7.9,164-126.6,164-126.6L3897.8,1262.1z"/>
	<g>
		<path class="st15" d="M3884.2,1432.5l1.4,0.7c0,0,0.1-1.1,0.4-3C3885.3,1431,3884.7,1431.8,3884.2,1432.5z"/>
	</g>
	<path class="st20" d="M3992.3,1263.4c-6,5.9-10,13.5-12.3,21.6c-7.9,28.5-34.5,120.9-45.6,127.2c-13.2,7.5-180.4,43.3-197,41.8
		c-16.5-1.5-32.1,15-35.4,27.7h61.3h4.3h214.7c0,0,56.1-69.1,62.3-141.8C4050.2,1275.2,4020,1235.8,3992.3,1263.4z"/>
	<path class="st20" d="M3970.8,1209.4v46.7c0,2.6-1.5,5-3.8,6.1c-7.1,3.3-23.1,8.8-38,0.1c-2-1.2-3.2-3.4-3.2-5.7v-42.2
		L3970.8,1209.4z"/>
	<path class="st21" d="M3970.8,1234.4v-25l-45,4.9v21.2C3934.3,1238.1,3950,1240.7,3970.8,1234.4z"/>
	<path class="st20" d="M3896.3,1201.4c-1.6-3.2-2.9-6.6-3.8-10.2c-2.8-9.5-3.9-19.5-4.1-28.1c-0.1-1.9-0.2-3.7-0.4-5.5
		c-0.8-7.4-0.2-15.3,2.1-23.2c7.3-25.4,30.9-43.4,57.3-43.5c35.6-0.2,62.9,29.8,60.6,64.5c3.9-1.8,8.2-2,11.8-0.1
		c6.9,3.7,8.8,13.7,4.2,22.3c-4.6,8.7-13.9,12.7-20.8,9c-1-0.5-1.8-1.2-2.6-1.9c-5,29.3-30.7,50.3-59.5,47.9
		c-14.1-1.2-26.5-7.8-35.5-17.8c-0.6-0.6-1.2-1.3-1.9-2C3900.6,1209.4,3898.2,1205.5,3896.3,1201.4z"/>
	<g>
		
			<ellipse transform="matrix(-0.9964 -8.531874e-002 8.531874e-002 -0.9964 7797.0869 2662.7234)" class="st17" cx="3955.4" cy="1164.7" rx="4.8" ry="4.8"/>
		
			<ellipse transform="matrix(-0.9964 -8.531874e-002 8.531874e-002 -0.9964 7714.0889 2657.5239)" class="st17" cx="3913.8" cy="1163.9" rx="4.8" ry="4.8"/>
		<path class="st17" d="M3945.6,1154.3c2.4-0.8,4.8-1.4,7.1-1.7c2.3-0.3,4.6-0.4,6.8-0.1c2.2,0.3,4.4,0.9,6.5,1.9l0.8,0.3
			c0.3,0.1,0.5,0.3,0.8,0.4l1.6,0.8c1.1,0.6,2.1,1.3,3.2,1.9c-0.6-1.1-1.3-2.2-2.1-3.2c-0.9-0.9-1.8-2-2.9-2.6
			c-2.1-1.6-4.7-2.6-7.4-3c-2.7-0.4-5.4,0-7.9,0.9C3949.5,1150.8,3947.3,1152.3,3945.6,1154.3z"/>
		<path class="st17" d="M3926.2,1153.6c-1.5-2.1-3.7-3.7-6.1-4.8c-2.4-1.1-5.1-1.6-7.8-1.4c-2.7,0.2-5.4,1-7.6,2.5
			c-1.2,0.6-2.1,1.6-3.1,2.4c-0.9,0.9-1.7,2-2.4,3.1c1.2-0.5,2.3-1.1,3.4-1.7l1.6-0.7c0.3-0.1,0.5-0.3,0.8-0.4l0.8-0.3
			c2.2-0.9,4.4-1.2,6.6-1.4c2.2-0.2,4.5,0,6.7,0.5C3921.5,1151.9,3923.8,1152.7,3926.2,1153.6z"/>
		<path class="st21" d="M3935.2,1158.6c-2,2.4-3.7,5-5.4,7.6c-1.6,2.6-3.1,5.4-4.4,8.3c-0.6,1.5-1.2,2.9-1.5,4.6
			c-0.1,0.4-0.1,0.8-0.1,1.3c0,0.2,0,0.5,0,0.7c0.1,0.3,0.1,0.5,0.2,0.8c0.1,0.1,0.2,0.3,0.2,0.4l0.2,0.2c0.1,0.2,0.3,0.3,0.4,0.5
			c0.3,0.3,0.6,0.6,0.9,0.8c1.3,1,2.6,1.8,4,2.5c1.4,0.7,2.8,1.3,4.3,1.8c-2.6-1.7-5.2-3.4-7.3-5.4c-0.3-0.3-0.5-0.5-0.7-0.8
			l-0.3-0.4l-0.2-0.2c0,0,0-0.1,0-0.1c-0.1-0.3-0.1-1.1,0.1-1.8c0.3-1.4,0.9-2.8,1.5-4.2c1.2-2.8,2.6-5.5,3.9-8.3
			C3932.5,1164.1,3933.9,1161.4,3935.2,1158.6z"/>
	</g>
	<polygon class="st20" points="3818.3,1882.7 3821.1,1952 3787.8,1952.2 3784.6,1886.8 	"/>
	<g>
		<path class="st0" d="M3733.4,1991.8l95.6,0.6c2.1,0,3.8-1.6,3.8-3.7l0-2.8c0-2-1.7-3.7-3.8-3.7l-95.6-0.6c-2.1,0-3.8,1.6-3.8,3.7
			l0,2.8C3729.6,1990.1,3731.3,1991.8,3733.4,1991.8z"/>
		<path class="st22" d="M3827.8,1951.3l3.7,28.3c0.5,3.5-1.5,6.6-4.1,6.6l-91-0.6c-2.4,0-4.7-1.5-6-4.2c-1.3-2.8-1.6-7,2.4-12.6
			c8-11.2,34.8-13.8,47.8-23.3l42.4,0.3C3825.3,1945.9,3827.4,1948.2,3827.8,1951.3z"/>
		<g>
			<path class="st0" d="M3787.2,1962L3787.2,1962c0.7-0.4,0.9-1.5,0.5-2.3c-1.8-3.9-7.5-13.4-18.8-11.5c-0.7,0.1-1.1,1-1,1.8l0,0
				c0.1,0.9,0.7,1.4,1.3,1.3c10.2-1.6,15,6.7,16.5,10C3786,1962.1,3786.6,1962.4,3787.2,1962z"/>
		</g>
		<g>
			<path class="st0" d="M3777.8,1965.6L3777.8,1965.6c0.7-0.4,0.9-1.5,0.5-2.3c-1.8-3.9-7.5-13.4-18.8-11.5c-0.7,0.1-1.1,1-1,1.8
				l0,0c0.1,0.9,0.7,1.4,1.3,1.3c10.2-1.6,15,6.7,16.5,10C3776.6,1965.7,3777.2,1965.9,3777.8,1965.6z"/>
		</g>
		<g>
			<path class="st0" d="M3769,1968.9L3769,1968.9c0.7-0.4,0.9-1.5,0.5-2.3c-1.8-3.9-7.5-13.4-18.8-11.5c-0.7,0.1-1.1,1-1,1.8l0,0
				c0.1,0.9,0.7,1.4,1.3,1.3c10.2-1.6,15,6.7,16.5,10C3767.8,1969,3768.5,1969.3,3769,1968.9z"/>
		</g>
		<path class="st13" d="M3803,1986.1c7-22.8,19.3-25.3,26-24.7l2.4,18.2c0.5,3.5-1.5,6.6-4.1,6.6L3803,1986.1z"/>
	</g>
	<polygon class="st20" points="3661.7,1882.7 3664.5,1949 3631.2,1949.2 3628,1886.8 	"/>
	<g>
		<path class="st0" d="M3576.8,1991.8l95.6,0.6c2.1,0,3.8-1.6,3.8-3.7l0-2.8c0-2-1.7-3.7-3.8-3.7l-95.6-0.6c-2.1,0-3.8,1.6-3.8,3.7
			l0,2.8C3573,1990.1,3574.8,1991.8,3576.8,1991.8z"/>
		<path class="st22" d="M3671.2,1951.3l3.7,28.3c0.5,3.5-1.5,6.6-4.1,6.6l-91-0.6c-2.4,0-4.7-1.5-6-4.2c-1.3-2.8-1.6-7,2.4-12.6
			c8-11.2,34.8-13.8,47.8-23.3l42.4,0.3C3668.7,1945.9,3670.8,1948.2,3671.2,1951.3z"/>
		<g>
			<path class="st0" d="M3630.6,1962L3630.6,1962c0.7-0.4,0.9-1.5,0.5-2.3c-1.8-3.9-7.5-13.4-18.8-11.5c-0.7,0.1-1.1,1-1,1.8l0,0
				c0.1,0.9,0.7,1.4,1.3,1.3c10.2-1.6,15,6.7,16.5,10C3629.4,1962.1,3630,1962.4,3630.6,1962z"/>
		</g>
		<g>
			<path class="st0" d="M3621.2,1965.6L3621.2,1965.6c0.7-0.4,0.9-1.5,0.5-2.3c-1.8-3.9-7.5-13.4-18.8-11.5c-0.7,0.1-1.1,1-1,1.8
				l0,0c0.1,0.9,0.7,1.4,1.3,1.3c10.2-1.6,15,6.7,16.5,10C3620,1965.7,3620.6,1965.9,3621.2,1965.6z"/>
		</g>
		<g>
			<path class="st0" d="M3612.4,1968.9L3612.4,1968.9c0.7-0.4,0.9-1.5,0.5-2.3c-1.8-3.9-7.5-13.4-18.8-11.5c-0.7,0.1-1.1,1-1,1.8
				l0,0c0.1,0.9,0.7,1.4,1.3,1.3c10.2-1.6,15,6.7,16.5,10C3611.2,1969,3611.9,1969.3,3612.4,1968.9z"/>
		</g>
		<path class="st13" d="M3646.5,1986.1c7-22.8,19.3-25.3,26-24.7l2.4,18.2c0.5,3.5-1.5,6.6-4.1,6.6L3646.5,1986.1z"/>
	</g>
	<path class="st22" d="M3799.3,1521.1c0,0-165.5,0.6-191.1,33.9c-25.5,33.3-45,258,0,356.3c0,0,58.2,2,71.5-6.1
		c0,0-4.1-165.9-2-209.9s32.7-50.2,36.8-54.3C3718.6,1636.9,3799.3,1521.1,3799.3,1521.1z"/>
	<path class="st22" d="M3818,1762.2c-1.5-13.8-3.4-31.8-5.5-52.2l0,0c-3.7-40-8.5-63.9-3.5-63.4c39.9,3.9,148.3-15.5,212.4-28
		c39-7.6,61.3-50.2,44-86c-2.2-4.5-4.8-8.4-7.9-11.6c-29.9-29.9-91.7-20.3-91.6-24.5c-349.5,29.2-272.5,89.2-239.7,296.3l0,0
		c0.2,0.9,0.4,1.8,0.6,2.7l0,0c14.2,68.5,27.6,124.9,27.6,124.9s51.1,2,80.7-5.1C3835.1,1915.7,3825.9,1834.8,3818,1762.2z"/>
	<path class="st26" d="M4033.6,1255.1c-11.4-10.8-38.4-13.2-63.3-12.9c0.3,0.2,0.6,0.2,0.6,0.2c-21.9,24.4-45,2.9-45,2.9l0,0
		c-4.5,0.5-7.1,0.9-7.1,0.9s-16.6,7.9-34.5,30.1c-0.3,0.3-19.5,20.9-21.3,45.3c-1.3,17.4,21,42.8,21,52.7s-10.3,82-10.3,82l3.9-0.5
		c0,0.2,0,0.4,0,0.5c0,0.9-8,2.2-18.1,3.4c-0.4,12.9-0.7,20.9-0.7,20.9v25.1c133,22.1,212.6,59.3,212.6,59.3
		C4078,1305.7,4035.4,1256.8,4033.6,1255.1z"/>
	<path class="st27" d="M3992.3,1263.4c-6,5.9-10,13.5-12.3,21.6c-7.9,28.5-34.5,120.9-45.6,127.2c-10.5,5.9-118.4,29.8-170.4,38.6
		c0,0,3.8,15.5,7.2,31h211.1c0,0,56.1-69.1,62.3-141.8C4050.2,1275.2,4020,1235.8,3992.3,1263.4z"/>
	<path class="st3" d="M3345.7,1283.5h251.6l71.4,174.5h121.2c3.4,0,6.1,2.8,6.1,6.2l0,0c0,3.4-2.7,6.2-6.1,6.2h-360.6L3345.7,1283.5
		z"/>
	<path class="st28" d="M3470.5,1383.1c1.5,7.4,8,12.4,14.5,11.1c6.5-1.3,10.6-8.4,9.1-15.8s-8-12.4-14.5-11.1
		C3473.1,1368.5,3469,1375.6,3470.5,1383.1z"/>
	<path class="st17" d="M3908.4,1085.9c0,0,67.6,62.4,99.5,69.5c0,0,4.3-48.4,3.8-50c-0.4-1.7-40.5-39.7-43-39.3
		c-2.5,0.4-75.2,10.8-75.2,10.8l-19.9,49.3L3908.4,1085.9z"/>
	<path class="st17" d="M3870,1099.2l17.6,50c0,0,35.5-25.2,49.2-50c13.7-24.8-35.5-15.7-35.5-15.7L3870,1099.2z"/>
	<path class="st29" d="M3950,1196.6c0,0-6.7-1.9-12.6,2.6c0,0-6.9-3.7-11.9,0.7c0,0,3.1,9.7,14,8.3
		C3950.4,1206.7,3950,1196.6,3950,1196.6z"/>
	<path class="st21" d="M3955.4,1192.6c-1.2,1.1-2.4,2.1-3.7,3c-1.3,0.9-2.6,1.8-4,2.5c-2.8,1.5-5.7,2.6-8.8,3
		c-3.1,0.5-6.2,0.3-9.2-0.4c-3-0.7-5.9-2-8.7-3.6c1.3,1,2.6,1.9,4,2.6c1.4,0.8,2.9,1.4,4.5,1.9c1.6,0.5,3.2,0.8,4.8,0.9
		c1.6,0.1,3.3,0,4.9-0.2c3.2-0.5,6.3-1.7,9.1-3.4C3951,1197.2,3953.5,1195.1,3955.4,1192.6z"/>
	<rect x="973.8" y="1356.7" class="st0" width="97.3" height="19.9"/>
	<rect x="1129.3" y="1356.7" class="st0" width="97.3" height="19.9"/>
	<rect x="4255" y="745.7" class="st12" width="39.3" height="19.4"/>
	<rect x="4346.7" y="699.5" class="st12" width="42.7" height="19.4"/>
	<rect x="4299.3" y="883.2" class="st12" width="41.8" height="11"/>
	<rect x="4624.8" y="718.8" class="st12" width="39.3" height="12.5"/>
	<rect x="4624.8" y="886.7" class="st12" width="39.3" height="12.5"/>
	<rect x="4669.1" y="765.1" class="st12" width="41.8" height="21.4"/>
	<rect x="4716.4" y="695.5" class="st0" width="42.7" height="13.7"/>
	<g>
		<rect x="4452.7" y="1385.6" class="st12" width="168.9" height="41.8"/>
		<rect x="4428.3" y="1427.4" class="st9" width="234.5" height="42.8"/>
		<rect x="4428.3" y="1346.2" class="st0" width="208.6" height="39.4"/>
		<rect x="4607" y="1346.2" class="st12" width="12.5" height="39.4"/>
		<rect x="4439.4" y="1346.2" class="st12" width="12.5" height="39.4"/>
		<rect x="4629.1" y="1427.4" class="st0" width="13.6" height="42.8"/>
	</g>
	<rect x="2518.8" y="677.3" class="st0" width="44.3" height="15.3"/>
	<rect x="2579" y="722.5" class="st12" width="26.4" height="72.7"/>
	<rect x="2621.9" y="658.8" class="st12" width="48.1" height="11.5"/>
	<rect x="2621.9" y="857.2" class="st12" width="48.1" height="15.1"/>
	<g>
		<polygon class="st3" points="2993.9,1622.7 3019.7,1992.5 3006.8,1992.5 2965.8,1626.7 		"/>
		<polygon class="st3" points="2722.1,1622.7 2696.2,1992.5 2709.2,1992.5 2750.1,1626.7 		"/>
		<path class="st4" d="M3106.8,1222.6c0,0-206.8-6.1-220.2-5.2c-13.4,1-25.8,44-25.8,44s-60.4,224.1-59.2,230.3
			s-56.4,150.6-56.4,150.6s49.7-1.3,51.9,0c2.2,1.3,192-16.3,194.7-18.1c2.6-1.8,12.3-34.8,12.7-36.5c0.4-1.8,14.9-130.3,14.9-130.3
			l7.5-70.9c0,0,28.6-60.8,29-61c0.4-0.2,26.8-53.5,28.6-56.1c1.8-2.6,29-32.1,29.9-34.8C3115.2,1232,3106.8,1222.6,3106.8,1222.6z"
			/>
		<path class="st5" d="M3106.8,1222.6c0,0-71.3-2.1-132.9-3.7c23.9,14.1,37.4,53.5,27.4,123.6c-8.5,59.6-17.9,124.2-55.4,201.7
			c-19.3,39.9-102.5,17.6-170.6,21.5c-14.7,38.1-30,76.6-30,76.6s49.7-1.3,51.9,0c2.2,1.3,192-16.3,194.7-18.1s12.3-34.8,12.7-36.5
			c0.4-1.8,14.9-130.3,14.9-130.3l7.5-70.9c0,0,28.6-60.8,29-61s26.8-53.5,28.6-56.1c1.8-2.6,29-32.1,29.9-34.8
			C3115.2,1232,3106.8,1222.6,3106.8,1222.6z"/>
		<g>
			<g>
				<path class="st6" d="M2707.4,1650.3L2707.4,1650.3c-0.4-7.1,4.9-13.2,11.9-13.7c22.1-1.5,69.9-4.9,119.1-9.6
					c94.2-8.9,128.3-16.3,140.5-20.1c4.2-1.3,7.4-4.7,8.5-9c3.3-13.2,5.2-40.5,6.9-63.4c6.2-86.8,16.3-229.9,105.5-308.5
					c5.6-4.9,14.1-4,18.6,1.9l0,0c4.1,5.4,3.4,13-1.7,17.5c-81.2,71.3-90.6,202.9-96.8,291c-3.6,50.2-5.8,74.9-16.7,86.3
					c-5.3,5.5-15.1,15.8-158.4,29.6c-50.8,4.9-100.9,8.5-123.7,10C2714,1662.8,2707.9,1657.4,2707.4,1650.3z M2985.3,1604.4
					L2985.3,1604.4L2985.3,1604.4z"/>
			</g>
		</g>
	</g>
	<polygon class="st20" points="2541.3,1879.5 2533.5,1942.5 2491.3,1945.8 2491.9,1887.3 	"/>
	<g>
		<path class="st0" d="M2427.2,1991.9l115.2,0.8c2.5,0,4.5-2,4.5-4.4l0-3.3c0-2.5-2.1-4.5-4.6-4.5l-115.2-0.8c-2.5,0-4.5,2-4.5,4.4
			l0,3.3C2422.6,1989.9,2424.7,1991.9,2427.2,1991.9z"/>
		<path class="st26" d="M2540.9,1943.2l4.4,34.1c0.5,4.2-1.8,8-5,8l-109.6-0.7c-2.8,0-5.7-1.8-7.2-5.1c-1.6-3.4-1.9-8.4,2.9-15.2
			c9.7-13.5,41.9-16.6,57.5-28.1l51,0.3C2537.9,1936.6,2540.4,1939.4,2540.9,1943.2z"/>
		<g>
			<path class="st0" d="M2491.9,1956.1L2491.9,1956.1c0.8-0.5,1.1-1.8,0.6-2.8c-2.2-4.7-9-16.1-22.7-13.9c-0.8,0.1-1.3,1.2-1.2,2.2
				l0,0c0.1,1,0.9,1.7,1.6,1.6c12.2-2,18,8.1,19.8,12C2490.5,1956.1,2491.3,1956.4,2491.9,1956.1z"/>
		</g>
		<g>
			<path class="st0" d="M2480.6,1960.4L2480.6,1960.4c0.8-0.5,1.1-1.8,0.6-2.8c-2.2-4.7-9-16.1-22.7-13.9c-0.8,0.1-1.3,1.2-1.2,2.2
				l0,0c0.1,1,0.9,1.7,1.6,1.6c12.2-2,18,8.1,19.8,12C2479.2,1960.4,2480,1960.8,2480.6,1960.4z"/>
		</g>
		<g>
			<path class="st0" d="M2470.1,1964.4L2470.1,1964.4c0.8-0.5,1.1-1.8,0.6-2.8c-2.2-4.7-9-16.1-22.7-13.9c-0.8,0.1-1.3,1.2-1.2,2.2
				l0,0c0.1,1,0.9,1.7,1.6,1.6c12.2-2,18,8.1,19.8,12C2468.6,1964.4,2469.4,1964.8,2470.1,1964.4z"/>
		</g>
		<path class="st13" d="M2511.1,1985.1c8.4-27.5,23.2-30.4,31.4-29.7l2.8,21.9c0.5,4.2-1.8,8-5,8L2511.1,1985.1z"/>
	</g>
	<polygon class="st2" points="2735.9,1361 2729,1433.7 2756.6,1439 2771.9,1410.2 2769.4,1372 2747.9,1357 	"/>
	<path class="st15" d="M2764,1246.5c0,0-28.1,73.3-28.1,114.5c0,0,14.7,9.7,36,7c21.2-2.6,3.4-86.3,4.2-88.5
		C2776.9,1277.4,2764,1246.5,2764,1246.5z"/>
	<polygon class="st20" points="2606,1880.8 2587.4,1941.6 2544.5,1941.9 2551.9,1897.5 	"/>
	<path class="st2" d="M2854.2,1413.9l-51.6,78l-68.6-13.6l-116.4-87l20.4-30.3c0,0,109,65.5,118.3,67.3c9.3,1.8,34.6-57.4,34.6-57.4
		L2854.2,1413.9z"/>
	<g>
		<path class="st0" d="M2482.8,1993l115.2,0.8c2.5,0,4.5-2,4.5-4.4l0-3.3c0-2.5-2.1-4.5-4.6-4.5l-115.2-0.8c-2.5,0-4.5,2-4.5,4.4
			l0,3.3C2478.3,1991,2480.3,1993,2482.8,1993z"/>
		<path class="st27" d="M2596.5,1944.3l4.4,34.1c0.5,4.2-1.8,8-5,8l-109.6-0.7c-2.8,0-5.7-1.8-7.2-5.1c-1.6-3.4-1.9-8.4,2.9-15.2
			c9.7-13.5,41.9-16.6,57.5-28.1l51,0.3C2593.5,1937.7,2596,1940.5,2596.5,1944.3z"/>
		<g>
			<path class="st0" d="M2547.6,1957.2L2547.6,1957.2c0.8-0.5,1.1-1.8,0.6-2.8c-2.2-4.7-9-16.1-22.7-13.9c-0.8,0.1-1.3,1.2-1.2,2.2
				l0,0c0.1,1,0.9,1.7,1.6,1.6c12.2-2,18,8.1,19.8,12C2546.1,1957.2,2546.9,1957.6,2547.6,1957.2z"/>
		</g>
		<g>
			<path class="st0" d="M2536.2,1961.5L2536.2,1961.5c0.8-0.5,1.1-1.8,0.6-2.8c-2.2-4.7-9-16.1-22.7-13.9c-0.8,0.1-1.3,1.2-1.2,2.2
				l0,0c0.1,1,0.9,1.7,1.6,1.6c12.2-2,18,8.1,19.8,12C2534.8,1961.6,2535.6,1961.9,2536.2,1961.5z"/>
		</g>
		<g>
			<path class="st0" d="M2525.7,1965.5L2525.7,1965.5c0.8-0.5,1.1-1.8,0.6-2.8c-2.2-4.7-9-16.1-22.7-13.9c-0.8,0.1-1.3,1.2-1.2,2.2
				l0,0c0.1,1,0.9,1.7,1.6,1.6c12.2-2,18,8.1,19.8,12C2524.3,1965.6,2525,1965.9,2525.7,1965.5z"/>
		</g>
		<path class="st13" d="M2566.7,1986.2c8.4-27.5,23.2-30.4,31.4-29.7l2.8,21.9c0.5,4.2-1.8,8-5,8L2566.7,1986.2z"/>
	</g>
	<path class="st22" d="M2972.6,1564.5c-5.9-54.6-70.5-55.5-70.5-55.5l-34.8-3l-0.8-7.4c0,0-239.9-28.6-272.7,80.3
		c-32.8,108.8-57.7,324.2-57.7,324.2s31.7,19.3,74.7,0c0,0,60.8-231.2,83.6-253.9c22.8-22.7,186.4-26.4,186.4-26.4
		S2978.4,1619.1,2972.6,1564.5z"/>
	<path class="st30" d="M2747.9,1468.5c0,0,5.7-199,16.2-221.9c10.5-22.9,47.7-27.3,47.7-27.3s96.9-14.4,122.1,9.4
		c1.9,1.8,45.7,59.9,38.7,335.8c0,0-83.2-45.8-224.7-69.3V1468.5z"/>
	<path class="st20" d="M2867.1,1179.7v49.7c0,2.8-1.6,5.3-4.1,6.4c-7.6,3.6-24.5,9.4-40.4,0.1c-2.1-1.3-3.4-3.6-3.4-6.1V1185
		L2867.1,1179.7z"/>
	<path class="st21" d="M2867.1,1217.9v-26.6l-47.8,5.3v22.6C2828.2,1221.8,2844.9,1224.6,2867.1,1217.9z"/>
	<rect x="2244.5" y="1432.4" class="st0" width="266.6" height="37"/>
	<rect x="2212.3" y="1395.4" class="st10" width="266.6" height="37"/>
	<path class="st22" d="M2707.3,1504c0,0-179.2-5.7-219.9,32.9s-13.4,328.6-6.6,355.2c0,0,37.2,17.7,66.6,8.6
		c29.4-9.1,18.1-136,18.1-136s-3.4-121.3,1.1-138.3c4.5-17,66.7-29.5,66.7-29.5s96.1-66.9,90.5-66.9S2707.3,1504,2707.3,1504z"/>
	<path class="st3" d="M2659.5,1333.8l-28.7-79.2c-1.1-3-4.5-4.4-7.4-3l-54.2,26.7c-2.9,1.4-4.2,4.9-2.9,7.9l46.9,107.7
		c1.4,3.3,5.2,4.9,8.5,3.6l47.6-17.6L2659.5,1333.8z"/>
	<path class="st20" d="M2611,1339.4c0-0.2,0.1-0.4,0.1-0.6c1.3-5.2,2.8-5.8,3.8-5.8c-0.2-0.8-0.2-1.6,0.1-2.3
		c2.4-7.4,5.2-0.7,5.2-0.7c6.9,10.2,28.1,19.4,28.1,19.4l7.3,1.6c-0.4-1.2,4-17.3,4-17.3s15.2,27.5,15.3,27.9
		c0.5,1.3-7.5,12.5-10.9,16.2c-3.3,3.7-9.9,12.7-10.3,13.4c0,0-15.8-10-21.4-14.9c-6.6-5.4-16.8-14.1-20.9-18.7
		c-2.9-3.3-3-6.5-2.3-9C2607.3,1345.1,2609,1341.8,2611,1339.4z"/>
	<g>
		<path class="st21" d="M2611.1,1339c0.3,2.1,1.1,4,2.1,5.9c1,1.8,2.3,3.5,3.7,5.1c1.4,1.5,3,2.9,4.7,4.1c0.8,0.6,1.8,1.1,2.6,1.7
			c0.9,0.5,1.8,1,2.8,1.4c-1.7-1.2-3.4-2.4-5-3.7c-1.6-1.3-3.1-2.7-4.5-4.2c-1.4-1.5-2.6-3.1-3.8-4.8
			C2612.7,1342.8,2611.7,1341,2611.1,1339z"/>
		<path class="st21" d="M2609,1348.6c0.5,2,1.5,3.9,2.6,5.7c1.1,1.8,2.6,3.3,4.1,4.8c1.6,1.4,3.2,2.7,5,3.7c0.9,0.6,1.8,1,2.7,1.5
			c1,0.4,1.9,0.8,2.9,1.2c-1.8-1.1-3.6-2.1-5.3-3.3c-1.7-1.2-3.3-2.4-4.8-3.8c-1.5-1.4-2.9-2.9-4.1-4.5
			C2610.9,1352.3,2609.8,1350.5,2609,1348.6z"/>
		<path class="st21" d="M2614.9,1333c0.3,2.1,1.1,4,2.1,5.9c1,1.8,2.3,3.5,3.7,5.1c1.4,1.5,3,2.9,4.7,4.1c0.8,0.6,1.8,1.1,2.6,1.7
			c0.9,0.5,1.8,1,2.8,1.4c-1.7-1.2-3.4-2.3-5-3.7c-1.6-1.3-3.1-2.7-4.5-4.2c-1.4-1.5-2.6-3.1-3.8-4.8
			C2616.5,1336.8,2615.5,1335,2614.9,1333z"/>
	</g>
	<path class="st20" d="M2890.2,1413.9l-51.6,78l-68.6-13.6l-116.4-87l20.4-30.3c0,0,109,65.5,118.3,67.3
		c9.3,1.8,34.6-57.4,34.6-57.4L2890.2,1413.9z"/>
	<path class="st15" d="M2934.4,1281.7c-5.6,30.9-20.4,102.5-41.8,135.6c0,0-51.7-3.8-80.9-39.2c0,0,39.8-98.4,50.2-118.5
		c8.4-16.2,48.6-64.4,68.5-16.6C2935.5,1255.2,2936.7,1268.7,2934.4,1281.7z"/>
	<g>
		<rect x="2212.3" y="1495.2" class="st18" width="18.2" height="497.3"/>
		<rect x="2383.6" y="1495.2" class="st18" width="18.2" height="497.3"/>
		<rect x="2902" y="1495.2" class="st18" width="18.2" height="497.3"/>
		<rect x="3073.4" y="1495.2" class="st18" width="18.2" height="497.3"/>
		<path class="st19" d="M3134.7,1501.1h-963.1c-4.4,0-8-3.6-8-8v-15.7c0-4.4,3.6-8,8-8h963.1c4.4,0,8,3.6,8,8v15.7
			C3142.7,1497.5,3139.1,1501.1,3134.7,1501.1z"/>
	</g>
	<g>
		<path class="st3" d="M2909.5,1136.8c0,0,16.5-59.3-15.6-83.3c-32.1-24-67.3-23.1-91.8-10.8c-24.5,12.3-40.9,58.5-31.4,85.8
			l80.5-21.9L2909.5,1136.8z"/>
		<path class="st21" d="M2786.6,1136.2c3,7.7,0.4,15.8-5.7,18.2s-13.5-1.9-16.4-9.6c-3-7.7-0.4-15.8,5.7-18.2
			C2776.3,1124.2,2783.6,1128.5,2786.6,1136.2z"/>
		<path class="st20" d="M2787.9,1180.8c-1.8-3.3-3.4-6.8-4.6-10.5c-3.5-9.9-5.1-20.3-5.8-29.4c-0.2-2-0.4-3.9-0.7-5.8
			c-1.2-7.8-1-16.1,1-24.5c6.4-27.2,30.3-47.3,58.1-48.8c37.5-2.1,67.9,28.1,67.2,64.7c4-2.1,8.5-2.6,12.4-0.7
			c7.5,3.5,10,14,5.6,23.3c-4.4,9.4-14,14.1-21.5,10.6c-1-0.5-2-1.1-2.8-1.9c-3.8,31.1-29.7,54.6-60.2,53.6
			c-14.9-0.5-28.3-6.9-38.3-16.9c-0.7-0.6-1.4-1.3-2.1-2.1C2792.8,1188.9,2790.2,1185,2787.9,1180.8z"/>
		<path class="st21" d="M2825.3,1124.4c-0.4,3.6-0.7,7.2-1.2,10.6c-0.5,3.4-1.2,7-2.7,9.3l-0.3,0.4c-0.1,0.1-0.1,0.2-0.4,0.4
			c-0.4,0.4-0.8,0.8-1.1,1.3c-0.6,0.9-1.1,2.1-1.2,3.3c-0.3,2.4,0.8,4.7,2.3,6.1c3,3,7.2,3.6,10.7,3c-3.5-0.9-6.8-2.4-8.6-4.9
			c-0.8-1.2-1.3-2.6-1-3.8c0.1-0.6,0.4-1.2,0.8-1.7c0.1-0.3,0.4-0.5,0.7-0.8l0.5-0.6l0.6-0.7c1.3-1.8,1.8-3.8,2.2-5.7
			c0.3-1.9,0.5-3.7,0.4-5.6C2826.9,1131.5,2826.4,1127.9,2825.3,1124.4z"/>
		
			<ellipse transform="matrix(-0.9994 -3.568735e-002 3.568735e-002 -0.9994 5660.7759 2363.2747)" class="st17" cx="2851.5" cy="1131.1" rx="5.5" ry="5.6"/>
		
			<ellipse transform="matrix(-0.9994 -3.567834e-002 3.567834e-002 -0.9994 5565.4072 2364.4028)" class="st17" cx="2803.8" cy="1132.5" rx="5.5" ry="5.6"/>
		<path class="st3" d="M2840,1117.8c2.9-0.6,5.6-1.1,8.2-1.3c2.6-0.2,5.2,0,7.7,0.5c2.5,0.5,4.9,1.3,7.2,2.6c1.2,0.5,2.3,1.4,3.5,2
			c1.2,0.7,2.3,1.6,3.6,2.3c-0.6-1.3-1.3-2.7-2.1-3.9c-1-1.1-1.9-2.4-3.1-3.3c-2.3-2.1-5.2-3.4-8.3-4c-3.1-0.6-6.3-0.4-9.2,0.5
			C2844.7,1114.1,2842,1115.6,2840,1117.8z"/>
		<path class="st3" d="M2815.5,1118.6c-2.1-2.2-4.8-3.6-7.7-4.4c-2.9-0.8-6.1-0.9-9.2-0.2c-3,0.7-5.9,2.1-8.2,4.3
			c-1.2,0.9-2.1,2.2-3,3.4c-0.8,1.3-1.5,2.6-2,4c1.3-0.8,2.4-1.7,3.5-2.4c1.2-0.7,2.2-1.6,3.5-2.1c2.3-1.4,4.7-2.2,7.1-2.8
			c2.5-0.6,5-0.8,7.7-0.7C2809.9,1117.7,2812.6,1118,2815.5,1118.6z"/>
		<path class="st3" d="M2902.1,1127.3c3.8-3,6.6-2.6,6.6-2.6l-0.8-19.4l-5.5-11.9c0,0-22.2-32.4-23-33.2s-18.3-11.8-19.4-12.3
			c-1.1-0.6-26.4,2.1-26.4,2.1s-43.8-11-37.4,12.5c6.5,23.5,38.2,37.1,39.9,36.1c-5-5.4-4.9-20.2-4.9-20.2
			C2853,1104.2,2895.5,1124.3,2902.1,1127.3z"/>
		<path class="st0" d="M2809.8,1165.9c1,7,7.2,12.7,15.1,13.2c7.9,0.5,14.8-4.3,16.7-11.1L2809.8,1165.9z"/>
	</g>
	<path class="st31" d="M3134.7,1501.1h-266.1c-4.4,0-8-3.6-8-8v-15.7c0-4.4,3.6-8,8-8h266.1c4.4,0,8,3.6,8,8v15.7
		C3142.7,1497.5,3139.1,1501.1,3134.7,1501.1z"/>
	<rect x="2224.9" y="1401.1" class="st12" width="126.1" height="24.7"/>
	<rect x="2441.1" y="1432.4" class="st32" width="13.6" height="37"/>
	<path class="st10" d="M5438.8,2020H275.2c-7.5,0-13.5-6-13.5-13.5v-0.1c0-7.5,6-13.5,13.5-13.5h5163.6c7.5,0,13.5,6,13.5,13.5v0.1
		C5452.3,2014,5446.2,2020,5438.8,2020z"/>
	<rect x="3316.5" y="1495.2" class="st18" width="18.2" height="497.3"/>
	<rect x="3487.9" y="1495.2" class="st18" width="18.2" height="497.3"/>
	<rect x="4006.3" y="1495.2" class="st18" width="18.2" height="497.3"/>
	<rect x="4177.6" y="1495.2" class="st18" width="18.2" height="497.3"/>
	<path class="st19" d="M4238.9,1501.1h-963.1c-4.4,0-8-3.6-8-8v-15.7c0-4.4,3.6-8,8-8h963.1c4.4,0,8,3.6,8,8v15.7
		C4246.9,1497.5,4243.4,1501.1,4238.9,1501.1z"/>
	<path class="st31" d="M4237.7,1501.1h-266.1c-4.4,0-8-3.6-8-8v-15.7c0-4.4,3.6-8,8-8h266.1c4.4,0,8,3.6,8,8v15.7
		C4245.7,1497.5,4242.2,1501.1,4237.7,1501.1z"/>
	<path class="st31" d="M5343.8,1501.1h-266.1c-4.4,0-8-3.6-8-8v-15.7c0-4.4,3.6-8,8-8h266.1c4.4,0,8,3.6,8,8v15.7
		C5351.8,1497.5,5348.2,1501.1,5343.8,1501.1z"/>
</g>
</svg>
