<?xml version="1.0" encoding="UTF-8" standalone="no"?> <svg id="Layer_1" data-name="Layer 1" xmlns="http://www.w3.org/2000/svg" viewBox="0 0 128 128"><defs><style>.cls-1{fill:#2e79bd;}.cls-2{fill:#2d3e50;}</style></defs><title>b</title><path class="cls-1" d="M71.16875,53.15665a14.34028,14.34028,0,0,1,.17306-1.91455,5.553,5.553,0,0,1,.17872-.807,4.42262,4.42262,0,0,0,.12168-.59178,3.13926,3.13926,0,0,0-.20036-1.74473,1.13571,1.13571,0,0,0-1.04486-.68836.69347.69347,0,0,0-.26423.00129,2.64009,2.64009,0,0,0-1.198.6808c-.08817.07256-.17061.14029-.24336.19436-.34258.25174-.68157.51267-1.0217.77482-.31041.23874-.62143.47855-.9376.71242l-.09126.07314c-.29958.221-.60479.43353-.91131.6468l-.36351.25379c-.225.15969-.45106.31056-.67738.46159-.05389.03608-.11923.07232-.1872.11051a1.62048,1.62048,0,0,0-.53847.40892.94813.94813,0,0,0-.09818.96627,1.808,1.808,0,0,0,1.29725.9536,2.33185,2.33185,0,0,0,1.43668-.37278c.17946-.1031.35543-.21631.529-.328a6.10138,6.10138,0,0,1,.79649-.46058,1.83337,1.83337,0,0,1,.19589-.07314,10.892,10.892,0,0,1,.00208,3.22778c-.0508.53525-.09888,1.041-.11253,1.53085-.05279,1.58869-.08107,3.32121-.08642,5.2952-.00453.457.00523.95783.0191,1.50643.00407.19868.0082.39815.02255.605.01175.33982.02562.69507.04291,1.0885-.01451.01285-.031.0262-.04918.041l-.03666.03128a3.15943,3.15943,0,0,1-.85723.35653l-.18384.05741c-.15531.05117-.34475.098-.5497.14867-.96686.24036-2.42762.60307-2.28082,1.93151A1.82305,1.82305,0,0,0,64.81,69.408a1.37163,1.37163,0,0,0,1.58465.03819c.07519-.03226.15143-.06476.22992-.09554l.19565-.07939c.12226-.05031.24446-.10075.38239-.14892a14.56911,14.56911,0,0,1,1.41437-.50392c.0064-.008.03324.00563.07541.03226a1.95009,1.95009,0,0,1,.33612.30414,1.54766,1.54766,0,0,0,.49694.39944,1.96618,1.96618,0,0,0,.86216.06157,2.661,2.661,0,0,0,1.26582-.4533.88692.88692,0,0,0,.39537-.82323c-.01083-.09867-.03672-.22683-.06855-.3801l-.02509-.12119c-.02-.08679-.03192-.16134-.043-.2272l-.02164-.1278a4.1251,4.1251,0,0,1,1.39279-.50324l.3012-.07406a4.196,4.196,0,0,0,1.56662-.61758c.29364-.211.27926-.67364.24278-1.00318a1.78871,1.78871,0,0,0-.06623-.313,2.8937,2.8937,0,0,0-.45409-.9312.58942.58942,0,0,0-.38175-.22487,1.36728,1.36728,0,0,0-.68491.17407c-.05564.025-.10831.0489-.15485.06641q-.41287.1547-.8277.30383a15.61293,15.61293,0,0,1-1.54508.48825c-.04318.01065-.07883.01861-.10794.02424-.00961-.03654-.0198-.074-.03008-.11225l-.01279-.04639a3.49659,3.49659,0,0,1-.07375-.44289,2.08975,2.08975,0,0,1-.01524-.21912l-.01735-.15461c-.00355-.07118-.00872-.14-.01377-.20651-.00523-.06757-.01047-.1327-.01276-.1969-.00291-.06543-.00738-.12658-.01145-.18356-.00425-.05851-.0082-.11225-.01077-.18644-.00618-.05509-.00866-.10264-.01093-.14384-.00223-.04052-.00444-.07626-.00793-.10748a44.82745,44.82745,0,0,1,.1506-8.4375C71.13576,53.87161,71.15235,53.51269,71.16875,53.15665Z"/><path class="cls-1" d="M80.66859,56.23126q-.32124.04021-.67254.10026l-.28014.04811c-.5927.1024-1.20419.20994-1.80992.26337-.0811.00753-.186.0079-.30255.009-.5332.00453-1.26383.01114-1.50067.53017a1.39782,1.39782,0,0,0,.17823,1.53115,1.43706,1.43706,0,0,0,1.40926.15228,3.54041,3.54041,0,0,1,.35332-.07045c.78048-.0942,1.54489-.18062,2.30453-.2007.13508-.00318.25857-.0123.36908-.0205l.0355-.00245.00536.14555c.01545.42814.02959.81883.03391,1.16862l.00263.06751a.25149.25149,0,0,0,.00214.052,7.34319,7.34319,0,0,0,.15409,1.9454c.16079.57669.6338.82587,1.40589.74048l.0067-.00073a1.03548,1.03548,0,0,0,.74672-.33211.90547.90547,0,0,0,.10476-.717c-.024-.13723-.03994-.28339-.05925-.4582l-.008-.07112a18.20218,18.20218,0,0,1-.12578-2.37948c.01827-.13466.03783-.25327.07274-.40495.0994-.01163.18809-.02393.25419-.03709a2.41679,2.41679,0,0,0,.3913-.04395,10.079,10.079,0,0,1,1.691-.18338c.12924-.00416.2631.00012.39821.004a3.40477,3.40477,0,0,0,.95443-.06072.92847.92847,0,0,0,.61412-.40446,1.263,1.263,0,0,0,.01493-.9637,1.2402,1.2402,0,0,0-.95489-1.01242,5.3137,5.3137,0,0,0-2.04728.06965,7.38809,7.38809,0,0,1-1.264.13527c-.09411-.00147-.18475-.00722-.26194-.0131a13.27072,13.27072,0,0,1-.218-1.356c-.00973-.08661-.01236-.22359-.0165-.39044-.0232-.94586-.08483-1.9036-.55276-2.31218a.75858.75858,0,0,0-.59747-.184,1.1767,1.1767,0,0,0-.84793.45832c-.489.66021-.26518,1.84943-.08532,2.80508a6.09777,6.09777,0,0,1,.13793.96774,2.96408,2.96408,0,0,1-.03112.39423Z"/><path class="cls-1" d="M97.82468,56.62556c-.27776.33658-.564.67413-.86072,1.00416-.38664.43175-.79021.85408-1.19715,1.25315a18.01183,18.01183,0,0,1-2.56032,2.07118c-.40078.26374-.76769.50594-1.10625.75376a6.59474,6.59474,0,0,0-1.89637,2.11042l-.029.05558c-.016.02938-.032.05913-.04312.08336-.40351.83609-.64671,2.39129.41875,3.00526a1.15591,1.15591,0,0,0,.72353.16073,2.76289,2.76289,0,0,0,1.33768-.7589,4.51031,4.51031,0,0,1,.528-.40464,11.23715,11.23715,0,0,1,2.833-1.17236,15.85584,15.85584,0,0,1,2.38358-.47754,27.56023,27.56023,0,0,1,3.64643-.16012c.08863.00129.17423.00624.25673.01138a1.31569,1.31569,0,0,0,1.24232-.41413,2.1997,2.1997,0,0,0,.4551-1.51818l-.00808-.17419a1.02146,1.02146,0,0,0-.3516-.7485.96216.96216,0,0,0-.75349-.10668c-.05463.00851-.10846.0172-.16287.02069-.1562.01279-.31237.02326-.46888.03409-.15874.01053-.31754.0213-.47169.034-1.16887.07565-2.37789.15375-3.56322.28486l-.17046.01861c-.468.0505-.86892.10405-1.21214.15045.42214-.32691.84456-.68344,1.26209-1.06537.07351-.06341.14671-.13208.22077-.20211.06041-.05711.1218-.11489.18543-.17113l.00949-.00881c.33844-.33015.68393-.67921,1.00881-1.0284a2.24635,2.24635,0,0,0,.16872-.17138l.09291-.0994a25.76886,25.76886,0,0,0,2.28727-2.87581c.4417-.63814.82228-1.22793,1.16452-1.80407l.18638-.31534a7.09313,7.09313,0,0,0,1.37244-3.86552,4.26519,4.26519,0,0,0-.16581-.9768,7.23876,7.23876,0,0,0-3.60062-4.1072,6.13965,6.13965,0,0,0-1.73136-.58486A7.09171,7.09171,0,0,0,94.408,45.4761a1.11492,1.11492,0,0,0-.16235.09753,15.20617,15.20617,0,0,0-1.90681,1.29027l-.05111.03972-.02711.05833a1.52417,1.52417,0,0,0-.07727,1.03623,2.03186,2.03186,0,0,0,.62755,1.06044,1.35,1.35,0,0,0,1.18787.36586l.06971-.01383.05377-.04652c.10359-.09043.21631-.18166.32908-.26949a11.26817,11.26817,0,0,1,1.13845-.8438l.05888-.03844a.59551.59551,0,0,0,.07106-.04581,4.89452,4.89452,0,0,1,1.22937-.58489,2.71863,2.71863,0,0,1,.51588-.082,3.4184,3.4184,0,0,1,2.82283,1.30007,3.19079,3.19079,0,0,1,.585,2.87939A14.79057,14.79057,0,0,1,97.82468,56.62556Z"/><path class="cls-2" d="M18.91345,49.88049a6.55264,6.55264,0,0,0,12.86417,0l1.00031-5.156a6.90238,6.90238,0,0,0-6.83828-7.8325H24.75146a6.90235,6.90235,0,0,0-6.83828,7.8325Z"/><path class="cls-2" d="M49.00284,67.5783a3.52167,3.52167,0,0,0,3.14377-1.99473l6.80664-14.05079a3.2368,3.2368,0,0,0-5.72762-3.00961L46.83309,59.8268s-13.67743-1.80818-14.77979-1.94809A1.67089,1.67089,0,0,0,31.715,57.867h-.01163c-.04083-.00581-.07584-.01169-.11082-.01751a1.5988,1.5988,0,0,0-.62994.04083l-.16918-.05252-3.28957,3.28963-1.77313,1.76141-.46077.47246-.11666.11666-.12829-.13417V63.303l-.02335.02338-.02332-.02338v.04083L24.85,63.478l-.57746-.58912-1.7731-1.76141-3.2896-3.28963-.16915.05252a1.60655,1.60655,0,0,0-.62994-.04083c-1.20149.15749-6.28751,1.20155-8.1423,1.58648a2.674,2.674,0,0,0-1.42315.76986,4.70061,4.70061,0,0,0-.69409.96823L3.66015,69.49138,1.82869,72.87429l-.20413.37912a3.335,3.335,0,0,0-.035,3.06218L7.72546,88.47067a3.10824,3.10824,0,0,0,3.57537,1.604,2.08426,2.08426,0,0,0,.40831-.13417,2.71855,2.71855,0,0,0,.58324-.3266v2.74525a12.44867,12.44867,0,0,0,12.44867,12.4487h0A12.44688,12.44688,0,0,0,37.18638,92.6494c.155-6.70136.30955-13.9416.46618-19.501.00585-.175.0292-1.03819.05836-2.03556,0-.07.00581-.14579.00581-.22169.04664-1.50471.09331-3.2021.09331-3.23705l7.51242-.05245,3.28375-.02338ZM12.29238,83.27971,8.95033,75.31816l3.34205-4.43861Z"/><path class="cls-1" d="M122.68395,23.19215H45.84833a4.08181,4.08181,0,0,0-4.08146,4.08143v.76215a4.08505,4.08505,0,0,0,4.08146,4.08146V55.95914l4.979-8.7947a6.072,6.072,0,0,1,.6468-.9226V35.1507h65.58407V78.89852H51.4741V69.818a6.18279,6.18279,0,0,1-2.44687.51646l-3.17891.02008V81.10968A3.41635,3.41635,0,0,0,49.2679,84.5243h70.00147a3.41528,3.41528,0,0,0,3.41458-3.41461V32.11719a4.08505,4.08505,0,0,0,4.08146-4.08146v-.76215A4.08181,4.08181,0,0,0,122.68395,23.19215Z"/></svg>