<?xml version="1.0" encoding="utf-8"?>
<!-- Generator: Adobe Illustrator 19.0.0, SVG Export Plug-In . SVG Version: 6.00 Build 0)  -->
<svg version="1.1" id="Capa_1" xmlns="http://www.w3.org/2000/svg" xmlns:xlink="http://www.w3.org/1999/xlink" x="0px" y="0px"
	 viewBox="0 0 425.2 425.2" style="enable-background:new 0 0 425.2 425.2;" xml:space="preserve">
<style type="text/css">
	.st0{fill:#FFD61B;}
	.st1{fill:#FCAF26;}
	.st2{fill:#FBB688;}
	.st3{fill:#289FAA;}
	.st4{fill:#B5CAD5;}
	.st5{fill:#D5906B;}
	.st6{fill:#DFCDCC;}
	.st7{fill:#EBDFDA;}
	.st8{fill:#371B14;}
	.st9{opacity:0.5;}
	.st10{fill:#FFFFFF;}
	.st11{fill:#A59F9D;}
</style>
<rect x="0" class="st0" width="425.2" height="425.2"/>
<ellipse class="st1" cx="213" cy="365.1" rx="150" ry="17.4"/>
<g>
	<path class="st2" d="M160.8,169.2c-1.2-6.3-7.2-12.1-15.4-10.3c-8.2,1.8-8.2,9.4-7,15.7c0.1,0.3,4.1,17.3,6.5,20.9
		c2.4,3.6,5.8,10.4,11.6,8.4c3.8-1.3,6.1-8.1,7-13C164.3,186,160.8,169.2,160.8,169.2z"/>
	<path class="st2" d="M265.1,168.9c1.2-6.3,7.2-12.1,15.4-10.3c8.2,1.8,9,9.7,7.8,15.9c-0.1,0.3-4.4,16-6.5,20.9
		c-1.7,4-6.3,11-12.2,8.5c-3.7-1.5-6.2-8.4-7.1-13.3C261.6,185.8,265.1,168.9,265.1,168.9z"/>
	<path class="st3" d="M85.5,361.2h254.3c0,0-5-62.4-13.4-71.8c-8.3-9.4-71.9-30.3-71.9-30.3l-83.1-0.2c0,0-66.9,19.6-71.5,30.5
		C95.4,300.4,85.5,361.2,85.5,361.2z"/>
	<path class="st4" d="M204.6,259l-33.2-0.1c0,0-66.9,19.6-71.5,30.5c-4.6,10.9-14.5,71.8-14.5,71.8H119c0,0,9.9-60.8,14.5-71.8
		C137.9,278.9,199.8,260.5,204.6,259z"/>
	<path class="st5" d="M180.4,254.8c0,0,20.9,17.2,32.7,17.2c11.7,0,32.7-17.2,32.7-17.2s-8.9-10.3-2.8-23.9
		c6.1-13.5-68.1-12.4-59.5,0C192.1,243.4,180.4,254.8,180.4,254.8z"/>
	<path class="st6" d="M202.1,268.9c1.6-4.3,4.7-8.6,9.7-12.3c5-3.7,8-0.4,29.3-12.6c-0.6-3.7-0.3-8.2,1.9-13.1
		c6.1-13.5-68.1-12.4-59.5,0c8.6,12.4-3.1,23.9-3.1,23.9S191.5,264,202.1,268.9z"/>
	<path class="st4" d="M176.2,253.6l-4.9,5.3c0,0,14.5,35.7,27,40.3c3.8,1.4,11.8-16.3,14.6-16.3c1.3,0,12.1,18.8,13.8,18.4
		c12.9-2.9,27.6-42.1,27.6-42.1L249,255l-36,22.6L176.2,253.6z"/>
	<path class="st2" d="M273.1,122c0-27.2-16.9-54.6-61.6-54.6c-44.7,0-60.9,29.9-60.9,57.1c0,1.4-0.1,75.5,8.5,92.5
		c8.7,17,32.6,34.4,53.9,34.4c23.3,0.1,44.3-14.9,54.1-34.4C276.9,197.5,273.1,122,273.1,122z"/>
	<path class="st7" d="M167.8,128.1c0.4,0.3,0.7,0.5,1.2,0.8c1.2,1.1-4.9,14.8-3.1,14.9c8.8,1.9,19.5-17.3,28.1-14.6
		c15.2,4.7,43.9,43.1,72,42.4c7.4-7.1,7.1-49.6,7.1-49.6c0-27.2-16.9-54.6-61.6-54.6c-37,0-54.5,20.5-59.4,43.1
		C159.1,113.4,164.9,119.1,167.8,128.1z"/>
	<path class="st7" d="M230.6,232c-21.3-0.1-45.2-17.4-53.9-34.4c-8.7-17-8.5-91.1-8.5-92.5c0-9.5,2-19.2,6.5-28
		c-17,11-23.9,29.8-23.9,47.5c0,1.4-0.1,75.5,8.5,92.5c8.7,17,32.6,34.4,53.9,34.4c22,0.1,42-13.3,52.4-31.3
		C255.5,227.5,243.4,232.1,230.6,232z"/>
	<g>
		<path class="st7" d="M265.1,220.7c0.1-0.2,0.2-0.3,0.3-0.4c-0.5,0.4-1,0.7-1.5,1C264.3,221.1,264.7,220.9,265.1,220.7z"/>
		<path class="st7" d="M223.2,245.8c-21.3-0.1-45.2-17.4-53.9-34.4c-8.7-17-8.5-91.1-8.5-92.5c0-12.2,3.4-24.9,11-35.2
			c0.8-2.2,1.7-4.4,2.8-6.5c-17,11-23.9,29.8-23.9,47.5c0,1.4-0.1,75.5,8.5,92.5c8.7,17,32.6,34.4,53.9,34.4
			c12.1,0,23.5-4.1,33.1-10.7C239,244,231.3,245.8,223.2,245.8z"/>
	</g>
	<path class="st8" d="M283.1,115.5c-5.5-30-30-51.7-70-51.5c-39.9,0.3-66.2,24.7-71.4,52.5c-2.2,11.9-4,34.5-3.1,48
		c6.8-5.6,9.5-6.3,12.8-5c2.2,24.5,7.6,24.1,7.6,24.1s0.5-16.6,1.6-27.6c1.1-11,19.1-13,28.1-32c28.5-1.2,46.5,35.2,77.7,37.2
		c-3.1,18.1,3.8,25.2,3.8,25.2s0.7-14.9,3.2-22c2.2-6.2,8.7-6.2,12-3.5C286.9,149.7,286.1,132,283.1,115.5z"/>
	<g class="st9">
		<path class="st10" d="M283.1,115.5c-5.5-30-30-51.7-70-51.5c-35,0.2-59.5,19.1-68.6,42.5c11.2-19.2,33.8-33.7,64.4-33.9
			c40-0.2,64.5,21.5,70,51.5c2.2,12.2,3.2,25,3,35.3c1.3,0.2,2.5,0.8,3.5,1.5C286.9,149.7,286.1,132,283.1,115.5z"/>
	</g>
	<g>
		<path class="st11" d="M188.6,109.7c-9,19-38,36.9-50,40.5c0-0.6-0.1-1.3-0.1-2c-0.2,5.9-0.2,11.6,0.1,16.2c6.8-5.6,9.5-6.3,12.8-5
			c2.2,24.5,7.6,24.1,7.6,24.1s0.5-16.6,1.6-27.6c1.1-11,19.1-13,28.1-32c28.4-1.2,46.3,34.9,77.3,37.2
			C243.1,153.2,217.1,108.5,188.6,109.7z"/>
	</g>
	<path class="st10" d="M176.2,245.1l-4.9,13.8c0,0,14.5,27.3,27,31.8c3.8,1.4,11.8-16.3,14.6-16.3c1.3,0,12.1,18.8,13.8,18.4
		c12.9-2.9,27.6-33.6,27.6-33.6l-5.4-12.6l-36,22.6L176.2,245.1z"/>
</g>
</svg>
