<?xml version="1.0" encoding="utf-8"?>
<!-- Generator: Adobe Illustrator 19.0.0, SVG Export Plug-In . SVG Version: 6.00 Build 0)  -->
<svg version="1.1" xmlns="http://www.w3.org/2000/svg" xmlns:xlink="http://www.w3.org/1999/xlink" x="0px" y="0px"
	 viewBox="0 0 1122 1122" style="enable-background:new 0 0 1122 1122;" xml:space="preserve">
<style type="text/css">
	.st0{fill:#FFFFFF;}
	.st1{opacity:0.47;fill:#CACACA;}
	.st2{enable-background:new    ;}
	.st3{fill:#A3BBCE;}
	.st4{fill:#7E93A3;}
	.st5{fill:#546870;}
	.st6{fill:#FBFBFB;}
	.st7{fill:#5B6D77;}
	.st8{fill:#8EA1B2;}
	.st9{fill:#8396A5;}
	.st10{fill:#424F57;}
	.st11{fill:#929292;}
	.st12{fill:#B2B2B2;}
	.st13{fill:#ECECEC;}
</style>
<g id="BG">
	<rect class="st0" width="1122" height="1122"/>
</g>
<g id="Shadow">
	<path class="st1" d="M950.1,689.7L428.4,388.4c-7.6-4.4-20-4.4-27.6,0L186.6,512.9c-7.6,4.4-7.5,11.6,0.1,16l521.7,301.2
		c7.6,4.4,20,4.4,27.6,0l214.2-124.5C957.8,701.2,957.7,694.1,950.1,689.7z"/>
</g>
<g id="Object">
	<g>
		<g>
			<g class="st2">
				<g>
					<path class="st3" d="M405.6,417.4c5.9,3.4,5.9,6.8,0,10.2l-14.8,8.6c-2.4,1.4-5.4,2.1-8.8,2.1c-3.4,0-6.4-0.7-8.8-2.1l-9.3-5.4
						l32.5-18.9L405.6,417.4z"/>
				</g>
				<path class="st4" d="M197.9,478.8C197.9,478.8,197.9,478.8,197.9,478.8c-0.4-0.3-0.7-0.6-1.1-0.8c-0.1-0.1-0.2-0.2-0.3-0.3
					c-0.2-0.2-0.4-0.4-0.6-0.6c-0.1-0.1-0.2-0.3-0.4-0.4c-0.1-0.2-0.3-0.3-0.4-0.5c-0.1-0.2-0.2-0.4-0.4-0.5
					c-0.1-0.2-0.2-0.4-0.3-0.6c0-0.1-0.1-0.1-0.1-0.2c-0.1-0.3-0.3-0.6-0.4-0.9c-0.1-0.2-0.1-0.5-0.2-0.7c0-0.1-0.1-0.2-0.1-0.4
					c-0.1-0.4-0.1-0.7-0.1-1.1l-0.1,40.8c0,0.4,0,0.7,0.1,1.1c0,0.1,0.1,0.2,0.1,0.4c0.1,0.2,0.1,0.5,0.2,0.7c0,0,0,0,0,0
					c0.1,0.3,0.2,0.6,0.4,0.9c0,0.1,0.1,0.1,0.1,0.2c0,0.1,0.1,0.2,0.1,0.3c0.1,0.1,0.1,0.2,0.2,0.3c0.1,0.2,0.2,0.4,0.4,0.5
					c0,0.1,0.1,0.1,0.1,0.2c0.1,0.1,0.2,0.2,0.3,0.3c0.1,0.1,0.2,0.3,0.4,0.4c0.1,0.1,0.1,0.1,0.1,0.2c0.1,0.1,0.3,0.3,0.4,0.4
					c0.1,0.1,0.2,0.2,0.3,0.3c0,0,0.1,0.1,0.1,0.1c0.3,0.2,0.6,0.5,0.9,0.7c0,0,0,0,0,0c0,0,0,0,0,0c0.3,0.2,0.7,0.4,1,0.7
					c0.1,0.1,0.2,0.1,0.3,0.2l0.1-40.8C198.7,479.4,198.3,479.1,197.9,478.8z"/>
				<path class="st5" d="M942.6,686.3c0.1-0.1,0.1-0.3,0.2-0.4c0.1-0.2,0.1-0.5,0.2-0.7c0-0.1,0.1-0.2,0.1-0.3
					c0.1-0.3,0.1-0.7,0.1-1l0.1-40.8c0,0.3,0,0.7-0.1,1c0,0.1-0.1,0.3-0.1,0.4c0,0.2-0.1,0.4-0.2,0.6c0,0.1-0.1,0.3-0.2,0.4
					c-0.1,0.2-0.2,0.4-0.3,0.6c-0.1,0.1-0.2,0.3-0.3,0.4c-0.1,0.2-0.2,0.4-0.3,0.6c0,0,0,0,0,0c-0.2,0.3-0.4,0.6-0.7,0.8
					c-0.1,0.1-0.1,0.1-0.2,0.2c-0.2,0.2-0.3,0.3-0.5,0.5c-0.2,0.2-0.4,0.3-0.5,0.5c-0.2,0.2-0.4,0.3-0.6,0.5
					c-0.2,0.1-0.3,0.2-0.5,0.3c-0.4,0.3-0.7,0.5-1.1,0.7l-0.1,40.8c0.4-0.2,0.7-0.4,1-0.6c0,0,0.1-0.1,0.1-0.1
					c0.2-0.1,0.3-0.2,0.5-0.3c0.2-0.1,0.3-0.2,0.5-0.3c0.1,0,0.1-0.1,0.2-0.1c0.2-0.2,0.4-0.3,0.5-0.5c0.1-0.1,0.2-0.2,0.3-0.3
					c0.1-0.1,0.1-0.1,0.2-0.2c0.1-0.1,0.1-0.1,0.2-0.2c0.2-0.3,0.5-0.6,0.7-0.8c0,0,0,0,0,0l0,0c0.1-0.2,0.2-0.4,0.4-0.6
					c0.1-0.1,0.2-0.3,0.2-0.4C942.4,686.6,942.5,686.5,942.6,686.3z"/>
				<path class="st3" d="M914,635.6L432.3,357.5c-7.4-4.3-19.3-4.3-26.7,0L222.8,463.8c-7.3,4.3-7.3,11.2,0.1,15.4l481.6,278.1
					c7.4,4.3,19.3,4.3,26.7,0l182.9-106.3C921.4,646.8,921.4,639.9,914,635.6z M330.1,473.2l28.9-27.6c-0.4-0.3-0.9-0.5-1.4-0.8
					l-8.9-5.1l-38.2,22.2l-15.4-8.9l101.5-59l24.3,14c8.6,5,12.5,10,11.9,15c-0.6,4.4-4.5,8.8-11.9,13l-14.7,8.6
					c-7.2,4.2-16,6.1-26.5,5.8l-32.9,32.3L330.1,473.2z M405.9,517L362,491.7l101.5-59l43.8,25.3l-15.4,8.9l-28.4-16.4l-27.7,16.1
					l20.8,12l-15.4,8.9l-20.8-12l-27.7,16.1l28.4,16.4L405.9,517z M441.7,539.2c-6.8-3.9-10.2-8.6-10.2-14.1c0-5.5,3.3-10.2,10-14
					l55.4-32.2c6.7-3.9,14.9-5.9,24.4-5.9c9.5,0,17.6,2,24.4,5.9c6.8,3.9,10.2,8.6,10.2,14.1c0,5.5-3.4,10.2-10.1,14.1l-11.6,6.7
					l-16-9.2l11.9-6.9c2.4-1.4,3.6-3.1,3.6-5.1c0-2-1.2-3.7-3.7-5.1c-2.4-1.4-5.4-2.1-8.8-2.1c-3.4,0-6.4,0.7-8.8,2.1l-55.6,32.3
					c-2.4,1.4-3.6,3.1-3.6,5.1c0,2,1.2,3.7,3.7,5.1c2.4,1.4,5.4,2.1,8.8,2.1c3.4,0,6.4-0.7,8.8-2.1l19.9-11.6l-8.6-4.9l15.4-8.9
					l24.5,14.2l-35.5,20.6c-6.7,3.9-14.9,5.9-24.3,5.8C456.5,545,448.4,543,441.7,539.2z M482.8,561.4l101.5-59l15.4,8.9l-101.5,59
					L482.8,561.4z M565.7,601c-5.9,0.5-11.8-0.1-17.8-1.9c-3.2-1-6.4-2.4-9.7-4.3c-6-3.5-9.5-7.2-10.5-11.2
					c-0.9-3.3-0.2-6.8,2.1-10.3c2.3-3.5,5.9-7,11-10.3l15.7,7.9c-5.3,3.8-8,7.2-8.1,10.2c-0.2,2.1,0.9,3.8,3.1,5.1
					c0.1,0.1,0.3,0.1,0.4,0.2c3.5,1.9,7.8,2.5,13,1.8c2.6-0.3,5.4-1.3,8.3-3c4.2-2.5,6.5-6,6.8-10.6c-0.2-3.4-0.4-8.6-0.8-15.4
					c-0.2-5.8,0.6-10.5,2.4-13.9c2.1-3.9,5.7-7.3,10.8-10.3c9.2-5.4,19.4-7.6,30.4-6.8c6.7,0.6,12.9,2.5,18.6,5.8
					c5.5,3.2,9,6.6,10.5,10.3c1.1,2.9,1,5.8-0.6,8.9c-1.5,3.1-4.3,6-8.4,8.8l-17.4-7c3.7-2.7,5.8-5.2,6.1-7.7c0.3-1.8-0.9-3.5-3.6-5
					c-2.8-1.6-6.2-2.1-10.2-1.6c-3.2,0.5-6.3,1.6-9.2,3.3c-4.6,2.7-7.4,6.6-8.1,11.7c-0.3,1.9-0.2,4.5,0.4,7.7
					c0.6,3.8,0.9,6.4,0.9,7.7c0,4.4-0.8,8.3-2.4,11.6c-0.8,1.6-1.5,2.9-2.4,4.1c-2.2,3-4.6,5.3-7.4,7
					C582.4,597.8,574.5,600.3,565.7,601z M593.2,625.1l86.1-50l-16.4-9.5l15.4-8.9l48.1,27.8l-15.4,8.9l-16.3-9.4l-86.1,50
					L593.2,625.1z M639.3,651.8l101.5-59l43.8,25.3l-15.4,8.9l-28.4-16.4l-27.7,16.1l20.8,12l-15.4,8.9l-20.8-12l-27.7,16.1
					l28.4,16.4l-15.4,8.9L639.3,651.8z M833.4,654.5c-0.6,4.4-4.5,8.8-11.9,13l-14.7,8.6c-7.2,4.2-16,6.1-26.4,5.8l-32.9,32.3
					l-16.7-9.6l28.9-27.6c-0.4-0.3-0.9-0.5-1.4-0.8l-8.9-5.1l-38.2,22.2l-15.4-8.9l101.5-59l24.3,14
					C830.2,644.4,834.1,649.4,833.4,654.5z"/>
				<g>
					<path class="st3" d="M806.4,648.8c5.9,3.4,5.9,6.8,0,10.2l-14.8,8.6c-2.4,1.4-5.4,2.1-8.8,2.1c-3.4,0-6.4-0.7-8.8-2.1l-9.3-5.4
						l32.5-18.9L806.4,648.8z"/>
				</g>
				<path class="st3" d="M937.7,635.2L432.9,343.8c-7.4-4.3-19.3-4.3-26.7,0L199.1,464.2c-7.3,4.3-7.3,11.2,0.1,15.4l504.7,291.4
					c7.4,4.3,19.3,4.3,26.7,0l207.2-120.4C945.1,646.4,945,639.5,937.7,635.2z M925,651.3L731.7,763.7c-7.3,4.3-19.3,4.3-26.7,0
					L211.9,479c-7.4-4.3-7.4-11.2-0.1-15.4l193.4-112.4c7.3-4.3,19.3-4.3,26.7,0L925,635.9C932.3,640.2,932.4,647.1,925,651.3z"/>
				<g>
					<path class="st6" d="M406.1,444.7l14.7-8.6c7.3-4.3,11.3-8.6,11.9-13c0.7-5.1-3.3-10.1-11.9-15l-24.3-14l-101.5,59l15.4,8.9
						l38.2-22.2l8.9,5.1c0.5,0.3,1,0.5,1.4,0.8l-28.9,27.6l16.7,9.6l32.9-32.3C390.1,450.8,398.9,448.9,406.1,444.7z M363.9,430.9
						l32.5-18.9l9.3,5.4c5.9,3.4,5.9,6.8,0,10.2l-14.8,8.6c-2.4,1.4-5.4,2.1-8.8,2.1c-3.4,0-6.4-0.7-8.8-2.1L363.9,430.9z"/>
					<polygon class="st6" points="420.5,475.5 441.3,487.5 456.7,478.6 435.9,466.6 463.6,450.5 492.1,466.9 507.4,458 463.6,432.7 
						362,491.7 405.9,517 421.3,508.1 392.8,491.6 					"/>
					<path class="st6" d="M525.8,518.6l-24.5-14.2l-15.4,8.9l8.6,4.9l-19.9,11.6c-2.4,1.4-5.3,2.1-8.8,2.1c-3.4,0-6.4-0.7-8.8-2.1
						c-2.4-1.4-3.7-3.1-3.7-5.1c0-2,1.2-3.7,3.6-5.1l55.6-32.3c2.4-1.4,5.4-2.1,8.8-2.1c3.4,0,6.4,0.7,8.8,2.1
						c2.4,1.4,3.7,3.1,3.7,5.1c0,2-1.2,3.7-3.6,5.1l-11.9,6.9l16,9.2l11.6-6.7c6.7-3.9,10.1-8.6,10.1-14.1c0-5.5-3.4-10.2-10.2-14.1
						c-6.7-3.9-14.9-5.8-24.4-5.9c-9.5,0-17.6,1.9-24.4,5.9L441.5,511c-6.6,3.9-10,8.5-10,14c0,5.5,3.4,10.2,10.2,14.1
						c6.7,3.9,14.8,5.8,24.2,5.8c9.5,0,17.6-1.9,24.3-5.8L525.8,518.6z"/>
					<polygon class="st6" points="584.3,502.4 482.8,561.4 498.2,570.3 599.7,511.3 					"/>
					<path class="st6" d="M596.8,586.7c0.9-1.2,1.7-2.6,2.4-4.1c1.6-3.3,2.4-7.2,2.4-11.6c0-1.3-0.2-3.9-0.9-7.7
						c-0.6-3.2-0.7-5.8-0.4-7.7c0.8-5.1,3.5-9,8.1-11.7c3-1.7,6-2.8,9.2-3.3c3.9-0.6,7.3-0.1,10.2,1.6c2.7,1.5,3.9,3.2,3.6,5
						c-0.4,2.5-2.4,5.1-6.1,7.7l17.4,7c4-2.8,6.8-5.7,8.4-8.8c1.5-3.1,1.7-6,0.6-8.9c-1.5-3.7-5-7.1-10.5-10.3
						c-5.7-3.3-11.9-5.2-18.6-5.8c-11-0.8-21.1,1.4-30.4,6.8c-5.1,3-8.7,6.4-10.8,10.3c-1.8,3.5-2.6,8.1-2.4,13.9
						c0.4,6.8,0.6,12,0.8,15.4c-0.3,4.6-2.6,8.2-6.8,10.6c-2.9,1.7-5.7,2.7-8.3,3c-5.2,0.7-9.5,0.1-13-1.8c-0.1-0.1-0.3-0.1-0.4-0.2
						c-2.2-1.3-3.3-3-3.1-5.1c0.2-3,2.9-6.4,8.1-10.2l-15.7-7.9c-5.1,3.3-8.7,6.8-11,10.3c-2.3,3.5-2.9,7-2.1,10.3
						c1,4,4.5,7.8,10.5,11.2c3.3,1.9,6.5,3.3,9.7,4.3c6,1.8,11.9,2.5,17.8,1.9c8.8-0.7,16.7-3.2,23.7-7.3
						C592.2,592,594.7,589.6,596.8,586.7z"/>
					<polygon class="st6" points="710.9,593.4 726.3,584.4 678.2,556.7 662.8,565.6 679.2,575.1 593.2,625.1 608.6,634 694.6,584 
											"/>
					<path class="st6" d="M821.6,639.4l-24.3-14l-101.5,59l15.4,8.9l38.2-22.2l8.9,5.1c0.5,0.3,0.9,0.5,1.4,0.8l-28.9,27.6l16.7,9.6
						l32.9-32.3c10.5,0.3,19.3-1.7,26.4-5.8l14.7-8.6c7.3-4.3,11.3-8.6,11.9-13C834.1,649.4,830.2,644.4,821.6,639.4z M806.3,659
						l-14.8,8.6c-2.4,1.4-5.4,2.1-8.8,2.1c-3.4,0-6.4-0.7-8.8-2.1l-9.3-5.4l32.5-18.9l9.3,5.4C812.2,652.1,812.2,655.6,806.3,659z"
						/>
					<polygon class="st6" points="670.1,651.7 697.8,635.6 718.6,647.6 734,638.7 713.2,626.7 740.9,610.6 769.3,627 784.7,618.1 
						740.9,592.7 639.3,651.8 683.2,677.1 698.5,668.1 					"/>
					<path class="st6" d="M925,635.9L431.8,351.2c-7.4-4.3-19.3-4.3-26.7,0L211.8,463.5c-7.3,4.3-7.3,11.2,0.1,15.4L705,763.7
						c7.4,4.3,19.3,4.3,26.7,0L925,651.3C932.4,647.1,932.3,640.2,925,635.9z M914.1,651.1L731.2,757.3c-7.3,4.3-19.3,4.3-26.7,0
						L222.8,479.3c-7.4-4.3-7.4-11.2-0.1-15.4l182.9-106.3c7.3-4.3,19.3-4.3,26.7,0L914,635.6C921.4,639.9,921.4,646.8,914.1,651.1z
						"/>
				</g>
				<polygon class="st7" points="730.6,771.1 730.4,811.8 937.6,691.4 937.7,650.7 				"/>
				<g>
					<polygon class="st8" points="703.9,771.1 703.8,811.8 199,520.4 199.2,479.7 					"/>
				</g>
				<path class="st9" d="M729.2,771.8c-0.1,0.1-0.2,0.1-0.4,0.2c-0.3,0.2-0.7,0.3-1,0.4c-0.2,0.1-0.4,0.1-0.6,0.2
					c-0.3,0.1-0.6,0.2-0.9,0.3c-0.2,0.1-0.5,0.1-0.7,0.2c-0.3,0.1-0.6,0.2-0.9,0.2c-0.3,0.1-0.6,0.1-0.9,0.2
					c-0.3,0.1-0.5,0.1-0.8,0.2c-0.5,0.1-0.9,0.2-1.4,0.2c-0.2,0-0.4,0.1-0.6,0.1c-0.4,0-0.7,0.1-1.1,0.1c-0.3,0-0.5,0-0.8,0.1
					c-0.4,0-0.8,0-1.2,0c-0.2,0-0.5,0-0.7,0c-0.6,0-1.1,0-1.7,0c-0.1,0-0.1,0-0.2,0c-0.6,0-1.3-0.1-1.9-0.2c-0.2,0-0.4-0.1-0.6-0.1
					c-0.4-0.1-0.8-0.1-1.2-0.2c-0.2,0-0.5-0.1-0.7-0.1c-0.4-0.1-0.7-0.1-1.1-0.2c-0.2,0-0.4-0.1-0.6-0.2c-0.4-0.1-0.9-0.2-1.3-0.4
					c-0.2-0.1-0.5-0.2-0.7-0.3c-0.3-0.1-0.5-0.2-0.8-0.3c-0.3-0.1-0.5-0.2-0.8-0.3c-0.2-0.1-0.4-0.2-0.6-0.3
					c-0.4-0.2-0.8-0.4-1.2-0.6l-0.1,40.8c0.3,0.2,0.6,0.3,0.9,0.5c0.1,0,0.2,0.1,0.3,0.1c0.2,0.1,0.4,0.2,0.6,0.3
					c0.2,0.1,0.3,0.1,0.5,0.2c0.1,0,0.2,0.1,0.4,0.1c0.3,0.1,0.5,0.2,0.8,0.3c0.1,0.1,0.3,0.1,0.4,0.2c0.1,0,0.2,0.1,0.3,0.1
					c0.4,0.1,0.9,0.3,1.3,0.4c0.1,0,0.3,0.1,0.4,0.1c0.1,0,0.1,0,0.2,0c0.4,0.1,0.7,0.2,1.1,0.2c0.2,0,0.5,0.1,0.7,0.1
					c0.4,0.1,0.8,0.1,1.2,0.2c0.2,0,0.4,0.1,0.6,0.1c0,0,0,0,0.1,0c0.6,0.1,1.2,0.1,1.9,0.2c0.1,0,0.1,0,0.2,0c0.6,0,1.1,0,1.7,0
					c0,0,0.1,0,0.1,0c0.2,0,0.4,0,0.6,0c0.4,0,0.8,0,1.2,0c0.3,0,0.5,0,0.8-0.1c0.4,0,0.7-0.1,1.1-0.1c0.1,0,0.1,0,0.2,0
					c0.1,0,0.3-0.1,0.4-0.1c0.5-0.1,1-0.1,1.4-0.2c0.1,0,0.2,0,0.3-0.1c0.1,0,0.3-0.1,0.4-0.1c0.3-0.1,0.6-0.1,0.9-0.2
					c0.1,0,0.3-0.1,0.4-0.1c0.1,0,0.3-0.1,0.4-0.1c0.2-0.1,0.5-0.1,0.7-0.2c0.1,0,0.3-0.1,0.4-0.1c0.2-0.1,0.4-0.1,0.5-0.2
					c0.2-0.1,0.4-0.1,0.6-0.2c0.1,0,0.2-0.1,0.3-0.1c0.3-0.1,0.5-0.2,0.8-0.3c0.1-0.1,0.2-0.1,0.4-0.2c0,0,0.1,0,0.1,0
					c0.4-0.2,0.8-0.4,1.2-0.6c0,0,0.1,0,0.1-0.1l0.1-40.8C730.1,771.3,729.7,771.6,729.2,771.8z"/>
			</g>
		</g>
		<polygon class="st1" points="484,724.3 496.8,716.9 483.9,709.4 496.7,702 471.3,687.3 484.1,679.9 446.1,658 459.3,650.4 
			432.5,634.9 481.9,606.2 469,598.7 481.8,591.3 455.7,576.2 442.9,583.7 430,576.2 319.8,640.3 307.6,633.3 319.7,626.3 
			281.1,603.9 243.3,625.9 256.2,633.3 243.4,640.7 256.3,648.2 230.1,663.4 230.7,663.7 230.7,663.7 242.2,670.5 216,685.7 
			228.8,693.1 202.7,708.3 215.6,715.8 179.3,736.8 308.3,811.3 308.5,811.4 345.8,789.7 358.7,797.1 396.3,775.2 409.2,782.7 
			496.8,731.7 		"/>
		<g>
			<g class="st2">
				<g>
					<polygon class="st10" points="435.8,495.9 435.7,520.3 423,527.8 423,503.3 					"/>
				</g>
				<g>
					<polygon class="st7" points="423,503.3 423,527.8 397.6,513.1 397.6,488.7 					"/>
				</g>
				<g>
					<polygon class="st3" points="435.8,495.9 423,503.3 397.6,488.7 410.4,481.2 					"/>
				</g>
				<g>
					<polygon class="st10" points="273.7,530.8 273.7,555.3 261.6,562.3 261.6,537.9 					"/>
				</g>
				<g>
					<polygon class="st7" points="211.7,537.9 211.6,562.3 198.7,554.9 198.8,530.4 					"/>
				</g>
				<g>
					<polygon class="st10" points="235.9,523.8 235.8,548.3 211.6,562.3 211.7,537.9 					"/>
				</g>
				<g>
					<polygon class="st7" points="260.9,538.3 260.9,562.7 235.8,548.3 235.9,523.8 					"/>
				</g>
				<g>
					<polygon class="st11" points="423,503.3 423,527.8 309.2,593.9 309.3,569.4 					"/>
				</g>
				<g>
					<polygon class="st10" points="435.9,510.7 435.8,535.2 386.4,563.9 386.5,539.5 					"/>
				</g>
				<g>
					<polygon class="st11" points="260.9,538.3 260.9,562.7 248.8,569.7 248.8,545.3 					"/>
				</g>
				<g>
					<polygon class="st12" points="224.6,545.3 224.5,569.8 211.6,562.3 211.7,537.9 					"/>
				</g>
				<g>
					<polygon class="st7" points="261.7,552.7 261.6,577.2 248.8,569.7 248.8,545.3 					"/>
				</g>
				<g>
					<polygon class="st10" points="224.6,545.3 224.5,569.8 211.7,577.2 211.8,552.7 					"/>
				</g>
				<g>
					<polygon class="st7" points="211.8,552.7 211.7,577.2 198.8,569.8 198.9,545.3 					"/>
				</g>
				<g>
					<polygon class="st3" points="224.6,545.3 211.8,552.7 198.9,545.3 211.7,537.9 					"/>
				</g>
				<g>
					<polygon class="st11" points="211.8,552.7 211.7,577.2 211.2,577.5 211.3,553 					"/>
				</g>
				<g>
					<polygon class="st13" points="211.3,553 211.3,552.5 211.8,552.7 					"/>
				</g>
				<g>
					<polygon class="st12" points="224.6,560.2 224.6,584.6 211.7,577.2 211.8,552.7 					"/>
				</g>
				<g>
					<polygon class="st10" points="413.3,554.9 413.2,579.4 400.4,586.8 400.5,562.4 					"/>
				</g>
				<g>
					<polygon class="st7" points="400.5,562.4 400.4,586.8 373.6,571.4 373.7,546.9 					"/>
				</g>
				<g>
					<polygon class="st11" points="400.1,562.6 400.1,587 387.3,594.5 387.3,570 					"/>
				</g>
				<g>
					<polygon class="st7" points="198.5,575.4 198.4,599.8 185.5,592.4 185.6,567.9 					"/>
				</g>
				<g>
					<polygon class="st10" points="224.6,560.2 224.6,584.6 198.4,599.8 198.5,575.4 					"/>
				</g>
				<g>
					<polygon class="st3" points="224.6,560.2 198.5,575.4 185.6,567.9 211.8,552.7 					"/>
				</g>
				<g>
					<polygon class="st7" points="322.2,576.8 322.1,601.3 309.2,593.9 309.3,569.4 					"/>
				</g>
				<g>
					<polygon class="st3" points="435.9,510.7 386.5,539.5 413.3,554.9 400.5,562.4 373.7,546.9 322.2,576.8 309.3,569.4 423,503.3 
											"/>
				</g>
				<g>
					<polygon class="st10" points="373.7,546.9 373.6,571.4 322.1,601.3 322.2,576.8 					"/>
				</g>
				<g>
					<polygon class="st11" points="261.7,552.7 261.6,577.2 219.2,601.8 219.3,577.4 					"/>
				</g>
				<g>
					<polygon class="st12" points="210.5,582.5 210.4,606.9 198.2,599.9 198.2,575.4 					"/>
				</g>
				<g>
					<polygon class="st7" points="232.2,584.8 232.1,609.3 219.2,601.8 219.3,577.4 					"/>
				</g>
				<g>
					<polygon class="st10" points="397.6,488.7 397.6,513.1 232.1,609.3 232.2,584.8 					"/>
				</g>
				<g>
					<polygon class="st3" points="397.6,488.7 232.2,584.8 219.3,577.4 261.7,552.7 248.8,545.3 260.9,538.3 235.9,523.8 
						211.7,537.9 198.8,530.4 223,516.4 235.8,508.9 248.7,516.4 273.7,530.8 261.6,537.9 274.5,545.3 384.8,481.2 					"/>
				</g>
				<g>
					<polygon class="st11" points="387.3,570 387.3,594.5 350.3,616 350.4,591.5 					"/>
				</g>
				<g>
					<polygon class="st7" points="425.3,591.9 425.2,616.4 400.1,601.9 400.2,577.4 					"/>
				</g>
				<g>
					<polygon class="st10" points="438.1,584.5 438,608.9 425.2,616.4 425.3,591.9 					"/>
				</g>
				<g>
					<polygon class="st10" points="210.5,582.5 210.4,606.9 184.3,622.1 184.4,597.7 					"/>
				</g>
				<g>
					<polygon class="st3" points="210.5,582.5 184.4,597.7 184.3,597.7 171.5,590.3 197.6,575.1 198.2,575.4 					"/>
				</g>
				<g>
					<polygon class="st10" points="184.4,597.7 184.3,622.1 184.3,622.2 184.3,597.7 					"/>
				</g>
				<g>
					<polygon class="st7" points="184.3,597.7 184.3,622.2 171.4,614.7 171.5,590.3 					"/>
				</g>
				<g>
					<polygon class="st10" points="400.2,577.4 400.1,601.9 363.2,623.4 363.2,598.9 					"/>
				</g>
				<g>
					<polygon class="st3" points="438.1,584.5 425.3,591.9 400.2,577.4 363.2,598.9 350.4,591.5 387.3,570 400.1,562.6 413,570 
											"/>
				</g>
				<g>
					<polygon class="st7" points="363.2,598.9 363.2,623.4 350.3,616 350.4,591.5 					"/>
				</g>
				<g>
					<polygon class="st11" points="425.3,591.9 425.2,616.4 412.4,623.8 412.5,599.3 					"/>
				</g>
				<g>
					<polygon class="st12" points="197.2,605.1 197.1,629.6 184.3,622.2 184.4,597.7 					"/>
				</g>
				<g>
					<polygon class="st7" points="437.9,614 437.8,638.5 425.3,631.2 425.3,606.8 					"/>
				</g>
				<g>
					<polygon class="st10" points="450.7,606.6 450.6,631 437.8,638.5 437.9,614 					"/>
				</g>
				<g>
					<polygon class="st3" points="197.2,605.1 171,620.3 158.2,612.9 184.3,597.7 					"/>
				</g>
				<g>
					<polygon class="st7" points="171,620.3 171,644.8 158.1,637.4 158.2,612.9 					"/>
				</g>
				<g>
					<polygon class="st10" points="197.2,605.1 197.1,629.6 171,644.8 171,620.3 					"/>
				</g>
				<g>
					<polygon class="st11" points="412.5,599.3 412.4,623.8 375.1,645.5 375.1,621 					"/>
				</g>
				<g>
					<polygon class="st10" points="425.3,606.8 425.3,631.2 388,652.9 388,628.5 					"/>
				</g>
				<g>
					<polygon class="st11" points="437.9,614 437.8,638.5 425,645.9 425.1,621.4 					"/>
				</g>
				<g>
					<polygon class="st12" points="183.9,627.8 183.8,652.2 171,644.8 171,620.3 					"/>
				</g>
				<g>
					<polygon class="st7" points="388,628.5 388,652.9 375.1,645.5 375.1,621 					"/>
				</g>
				<g>
					<polygon class="st3" points="450.7,606.6 437.9,614 425.3,606.8 388,628.5 375.1,621 412.5,599.3 425.3,591.9 438.1,599.3 
											"/>
				</g>
				<g>
					<polygon class="st3" points="450.7,621.4 438,628.9 425.1,621.4 437.9,614 					"/>
				</g>
				<g>
					<polygon class="st7" points="438,628.9 437.9,653.3 425,645.9 425.1,621.4 					"/>
				</g>
				<g>
					<polygon class="st10" points="450.7,621.4 450.7,645.9 437.9,653.3 438,628.9 					"/>
				</g>
				<g>
					<polygon class="st10" points="183.9,627.8 183.8,652.2 159.8,666.2 159.9,641.7 					"/>
				</g>
				<g>
					<polygon class="st7" points="147.7,648.8 147.6,673.3 134.7,665.8 134.8,641.4 					"/>
				</g>
				<g>
					<polygon class="st11" points="438,628.9 437.9,653.3 351,703.8 351,679.4 					"/>
				</g>
				<g>
					<polygon class="st12" points="351,679.4 351,703.8 338.1,696.4 338.2,671.9 					"/>
				</g>
				<g>
					<polygon class="st10" points="450.8,636.3 450.8,660.8 363.8,711.3 363.9,686.8 					"/>
				</g>
				<g>
					<polygon class="st3" points="450.8,636.3 363.9,686.8 351,679.4 438,628.9 					"/>
				</g>
				<g>
					<polygon class="st7" points="363.9,686.8 363.8,711.3 351,703.8 351,679.4 					"/>
				</g>
				<g>
					<polygon class="st12" points="300.6,693.8 300.5,718.3 287.6,710.8 287.7,686.4 					"/>
				</g>
				<g>
					<polygon class="st11" points="338.2,671.9 338.1,696.4 300.5,718.3 300.6,693.8 					"/>
				</g>
				<g>
					<polygon class="st11" points="287.7,686.4 287.6,710.8 262.5,725.4 262.5,701 					"/>
				</g>
				<g>
					<polygon class="st0" points="425.1,621.4 438,628.9 351,679.4 338.2,671.9 300.6,693.8 287.7,686.4 262.5,701 159.9,641.7 
						183.9,627.8 171,620.3 197.2,605.1 184.4,597.7 210.5,582.5 198.2,575.4 185.6,567.9 198.5,575.4 224.6,560.2 211.8,552.7 
						224.6,545.3 211.7,537.9 235.9,523.8 260.9,538.3 248.8,545.3 261.7,552.7 219.3,577.4 232.2,584.8 397.6,488.7 423,503.3 
						309.3,569.4 322.2,576.8 373.7,546.9 399.4,561.7 400.1,562.6 387.3,570 350.4,591.5 363.2,598.9 400.2,577.4 425.3,591.9 
						412.5,599.3 375.1,621 388,628.5 425.4,606.8 437.9,614 					"/>
				</g>
				<g>
					<polygon class="st12" points="262.5,701 262.5,725.4 159.8,666.2 159.9,641.7 					"/>
				</g>
				<g>
					<polygon class="st3" points="351,679.4 313.4,701.2 300.6,693.8 338.2,671.9 					"/>
				</g>
				<g>
					<polygon class="st7" points="313.4,701.2 313.4,725.7 300.5,718.3 300.6,693.8 					"/>
				</g>
				<g>
					<polygon class="st10" points="351,679.4 351,703.8 313.4,725.7 313.4,701.2 					"/>
				</g>
				<g>
					<polygon class="st10" points="300.6,693.8 300.5,718.3 275.3,732.9 275.4,708.4 					"/>
				</g>
				<g>
					<polygon class="st10" points="275.4,708.4 275.3,732.9 264.3,739.3 264.3,714.8 					"/>
				</g>
				<g>
					<polygon class="st7" points="263.2,715.5 263.1,740 147.6,673.3 147.7,648.8 					"/>
				</g>
				<g>
					<polygon class="st3" points="300.6,693.8 275.4,708.4 264.3,714.8 263.2,715.5 147.7,648.8 134.8,641.4 147,634.3 171,620.3 
						183.9,627.8 159.9,641.7 262.5,701 287.7,686.4 					"/>
				</g>
				<g>
					<polygon class="st10" points="264.3,714.8 264.3,739.3 263.1,740 263.2,715.5 					"/>
				</g>
			</g>
		</g>
	</g>
</g>
</svg>
