<?xml version="1.0" encoding="utf-8"?>
<!-- Generator: Adobe Illustrator 19.0.0, SVG Export Plug-In . SVG Version: 6.00 Build 0)  -->
<svg version="1.1" id="Layer_1" xmlns="http://www.w3.org/2000/svg" xmlns:xlink="http://www.w3.org/1999/xlink" x="0px" y="0px"
	 viewBox="0 0 2000 2000" style="enable-background:new 0 0 2000 2000;" xml:space="preserve">
<style type="text/css">
	.st0{fill:#FFFFFF;}
	.st1{fill:#50BFA5;}
	.st2{fill:#3C8F7C;}
	.st3{fill:#355389;}
	.st4{fill:#466EB6;}
	.st5{fill:#F7CC7F;}
	.st6{fill:#FAE0B2;}
	.st7{fill:#96D9C9;}
	.st8{fill:#F48C7F;}
	.st9{fill:#B75742;}
	.st10{fill:#86B1F2;}
	.st11{fill:#F47458;}
	.st12{fill:#184655;}
	.st13{fill:#F7A491;}
	.st14{fill:#13375B;}
	.st15{fill:#9BC1F9;}
</style>
<rect class="st0" width="2000" height="2000"/>
<g>
	<polygon class="st1" points="840.6,677.1 826.6,681.4 817.1,659.6 795.9,663.3 786.2,648.2 778.5,653.1 791.5,673.4 811.6,669.8 
		821.4,692.5 842.5,686 	"/>
	<polygon class="st1" points="1739.5,1460.8 1725.5,1465.1 1716,1443.3 1694.8,1447.1 1685.1,1431.9 1677.4,1436.8 1690.4,1457.1 
		1710.5,1453.5 1720.3,1476.2 1741.4,1469.7 	"/>
	<g>
		<g>
			<path class="st1" d="M754.2,1718.8c0,0-74.8-253.5-80.8-309.4c-6-55.9,35.8-38.6,35.8-38.6s-35.2-106.6-9.7-131.9
				c25.4-25.3,48.4,21.9,48.4,21.9s7.7-129.4,34.8-129.4c50.5-0.1,49.5,141.1,49.5,141.1s12.9-55.3,40-40.1
				c40.8,22.8-17.7,133.6-17.7,133.6s52,0,70.3,26.3C957.5,1439.2,754.2,1718.8,754.2,1718.8z"/>
		</g>
	</g>
	<g>
		<g>
			<path class="st1" d="M778.7,1685.2c0,0-215.6-36.1-262.5-74.3c-46.9-38.2-0.5-55.4-0.5-55.4s-108.3-55.5-107.1-93.3
				c1.3-37.8,55.1-18.6,55.1-18.6s-91.3-104.1-69.7-123.8c40.2-36.8,145.8,71.4,145.8,71.4s-31.3-51.5,1.7-59.6
				c49.8-12.3,86.5,114.6,86.5,114.6s-9.3-50.1,25-43.4C714.4,1414.7,778.7,1685.2,778.7,1685.2z"/>
		</g>
		<path class="st2" d="M652.9,1402.7c-34.4-6.2-25,43.4-25,43.4s-36.7-126.9-86.5-114.6c-33,8.1-1.7,59.6-1.7,59.6
			S434.2,1283,394,1319.8l384,365.5C771.1,1650.4,710.5,1413.2,652.9,1402.7z"/>
	</g>
	<g>
		<path class="st3" d="M840,1714.9c0,0-113.6-115.5-170.7-127.5c-57.2-12-46.9,28.7-46.9,28.7s-113.5-99.2-139.8-75.2
			c-26.3,24,2.1,47.3,2.1,47.3s-94.5-16.7-108,14.3c-20.8,47.7,134.6,73.6,134.6,73.6s-65.1,4.5-50,34.4
			C484.1,1755.5,840,1714.9,840,1714.9z"/>
		<path class="st4" d="M376.7,1602.4c13.5-31,108-14.3,108-14.3s-28.4-23.2-2.1-47.3c26.3-24,136.2,61.7,136.2,61.7
			s-25.9-49.5,31.3-37.5c57.2,12,189.9,149.9,189.9,149.9L376.7,1602.4z"/>
	</g>
	<g>
		<path class="st5" d="M1020.8,523.9c-38.2,6.3-49.6,56.5-17.8,78.9c5.7,4,9.7,10.1,11.3,16.9l5.8,23.3c1.6,6.4,7.9,10.6,14.4,9.5
			l14.5-2.4c6.5-1.1,11.2-7,10.6-13.6c-2-24.1-4.5-32.8,3.3-43.6C1085.8,561.5,1059,517.6,1020.8,523.9z"/>
		<g>
			<path class="st6" d="M1024.7,625.9c-2.5-20.6-6-42.4-7.2-48.6c-21.9,1.2-13.6-21.9-3.5-12.5c2.9,2.7,4.2,6.3,5.1,10.3
				c7.3-0.7,14.4-2.7,20.9-6.1c-0.3-5.1-0.9-8.9,0.6-12.2c2.1-4.9,8.4-6.3,10.9-1.5c1,1.8,1.1,4.1,0.4,6c-1.5,4.1-5.9,6.8-9.7,8.9
				c1.2,16.4,2.7,32.9,4.8,49.2l-2.1,0.3c-2-16-3.6-32.3-4.7-48.4c-6.4,3.2-13.4,5.2-20.6,5.9c1.5,7.9,4.8,29.1,7.1,48.5
				L1024.7,625.9z M1007.1,572.4c1.9,2.1,5.2,3,10,2.8c-0.8-3.5-2-6.7-4.5-8.9C1007.2,561.3,1003.8,568.9,1007.1,572.4z
				 M1042.5,557.6c-1.2,2.7-0.7,6.2-0.5,10.3c3.1-1.8,6.8-4,7.9-7.3c0.8-2.3-0.1-5.5-2.4-6.1
				C1047.3,554.4,1043.4,555.7,1042.5,557.6z"/>
		</g>
		<path class="st7" d="M1014.2,619.1c0.1,0.2,0.1,0.4,0.2,0.6l5.8,23.3c1.6,6.4,7.9,10.6,14.4,9.5l14.5-2.4
			c6.5-1.1,11.2-7,10.6-13.6c-0.9-10.7-1.9-18.4-2-24.6L1014.2,619.1z"/>
		<g>
			<path class="st6" d="M992.5,506.5L981,485.6c-1.1-2-0.4-4.6,1.7-5.7c2-1.1,4.6-0.4,5.7,1.7l11.4,20.9c1.1,2,0.4,4.6-1.7,5.7
				C996.1,509.2,993.6,508.5,992.5,506.5z"/>
		</g>
		<g>
			<path class="st6" d="M967.5,556.9l-24.9-2.2c-2.3-0.2-4-2.2-3.8-4.5c0.2-2.3,2.2-4,4.5-3.8l24.9,2.2c2.3,0.2,4,2.2,3.8,4.5
				C971.8,555.5,969.8,557.1,967.5,556.9z"/>
		</g>
		<g>
			<path class="st6" d="M942.8,633.3c-1.6-1.6-1.6-4.3,0-5.9c6.1-6.1,12.9-11.5,20-16.3c1.9-1.3,4.5-0.8,5.8,1.2
				c1.3,1.9,0.8,4.5-1.2,5.8c-6.7,4.5-13,9.6-18.8,15.3C947,635,944.4,635,942.8,633.3z"/>
		</g>
		<g>
			<path class="st6" d="M1054,505.4c-2.2-0.6-3.5-2.9-3-5.1c2.8-10.6,4.6-21.5,5.1-32.4c0.1-2.3,2.1-4.1,4.4-3.9
				c2.3,0.1,4.1,2.1,3.9,4.4c-0.6,11.5-2.4,23-5.4,34.1C1058.5,504.6,1056.2,505.9,1054,505.4z"/>
		</g>
		<g>
			<path class="st6" d="M1079.7,537.4c-0.7-2.2,0.6-4.5,2.8-5.2l25.9-7.8c2.2-0.7,4.5,0.6,5.2,2.8c0.7,2.2-0.6,4.5-2.8,5.2
				l-25.9,7.8C1082.7,540.8,1080.3,539.6,1079.7,537.4z"/>
		</g>
		<g>
			<path class="st6" d="M1122.2,606.3c-0.4,0-0.8-0.1-1.1-0.2c-9-2.5-17.7-6-25.9-10.4c-2-1.1-2.8-3.6-1.7-5.6
				c1.1-2,3.6-2.8,5.6-1.7c7.7,4.1,15.9,7.4,24.3,9.7c2.2,0.6,3.5,2.9,2.9,5.1C1125.7,605.1,1124,606.3,1122.2,606.3z"/>
		</g>
	</g>
	<path class="st5" d="M1501.6,790.6l-13.1-30.9l-32.9-6.8c-3.7-0.8-5-5.5-2.1-8l25.4-22l-3.7-33.3c-0.4-3.8,3.7-6.4,7-4.5l28.7,17.3
		l30.6-13.9c3.5-1.6,7.3,1.5,6.4,5.2l-7.6,32.7l22.6,24.8c2.6,2.8,0.8,7.4-3,7.7l-33.4,2.9l-16.6,29.2
		C1508,794.4,1503.1,794.1,1501.6,790.6z"/>
	<polygon class="st8" points="1709.6,684.6 1704.3,706.2 1668.5,701.4 1656.7,732.1 1629.4,732.8 1629.8,746.7 1666.4,745.6 
		1677.5,716.6 1714.7,721.6 1722.8,689 	"/>
	<path class="st9" d="M1391,1721.6H762.4c-24,0-43.5-20.2-43.5-45.1v-26.8c0-24.9,19.5-45.1,43.5-45.1H1391l0,0
		c-28.8,32.6-29.3,82.4-1.2,115.6L1391,1721.6z"/>
	<path class="st6" d="M1381.3,1618h-348.7c-24,0-43.5,20.2-43.5,45.1l0,0c0,24.9,19.5,45.1,43.5,45.1h348.7
		C1365,1680.5,1365.1,1645.6,1381.3,1618z"/>
	<path class="st10" d="M1170.2,1523.3c0.9-1.7-0.5-3.7-2.6-3.7H834.9c-26.1,0-47.2,19-47.2,42.5l0,0c0,23.5,21.1,42.5,47.2,42.5
		h332.7c2.1,0,3.5-2,2.6-3.7l0,0C1157.1,1576.3,1157.1,1547.8,1170.2,1523.3z"/>
	<path class="st5" d="M1168.1,1527.5h-164.9c-30.6,0-55.4,15.9-55.4,35.6c0,19.7,24.8,35.6,55.4,35.6h165.9
		C1157.8,1576.1,1157.5,1550.3,1168.1,1527.5z"/>
	<g>
		<path class="st9" d="M1125.5,1544.4H1104c-4.6,0-8.4,1.6-8.4,3.5v0.3h29.8V1544.4z"/>
		<path class="st11" d="M1143.8,1553.1c0-4.8-5.6-8.7-12.5-8.7h-27.6c5.2,0,9.5,2.9,9.5,6.6l-0.1,93.1l15.2-12l15.5,12
			L1143.8,1553.1z"/>
	</g>
	<g>
		<path class="st6" d="M1109,1516.6H915.5c-17.2,0-31.1-16.5-31.1-36.9l0,0c0-20.4,13.9-36.9,31.1-36.9H1109l0,0
			c-14.8,20.4-15.4,50.4-1.4,71.7L1109,1516.6z"/>
		<path class="st4" d="M884.4,1479.7L884.4,1479.7c0-20.4,14.2-36.9,31.8-36.9h196.5c0.9,0,1.7-0.9,1.6-1.9l0,0c0-1-0.7-1.9-1.6-1.9
			H801c-19.4,0-35.1,18.2-35.1,40.7l0,0c0,22.5,15.7,40.7,35.1,40.7h311.7c0.9,0,1.6-0.8,1.6-1.9l0,0c0-1.1-0.7-1.9-1.6-1.9H916.2
			C898.6,1516.6,884.4,1500.1,884.4,1479.7z"/>
		<g>
			<path class="st12" d="M1075.2,1460.9h-21.5c-4.6,0-8.4,1.5-8.4,3.4v0.3h29.8V1460.9z"/>
			<path class="st2" d="M1093.5,1469.4c0-4.7-5.6-8.5-12.5-8.5h-27.6c5.2,0,9.5,2.9,9.5,6.5l-0.1,91.3l15.2-11.7l15.5,11.7
				L1093.5,1469.4z"/>
		</g>
	</g>
	<g>
		<g>
			<path class="st12" d="M1417.4,897l28.6-7.5l-19.4,258.3l-34.3,1.1l17.3-242.5C1409.9,902,1413,898.2,1417.4,897z"/>
			<g>
				<path class="st5" d="M1429.2,1155.2c-0.6,0.1-1.3,0.1-2,0c-5.7-0.7-9.9-6.3-9.4-12.6l19-242.9c0.5-6.3,5.5-10.9,11.2-10.2
					c5.7,0.7,9.9,6.3,9.4,12.6l-19,242.9C1437.9,1150.5,1434,1154.7,1429.2,1155.2z"/>
				<path class="st5" d="M1166.2,1168.1c0,0.2,0,0.4,0,0.5l0,0c0.9,9.9,8.6,17.3,17.1,16.5l241.3-21.6c8.5-0.8,14.8-9.4,13.9-19.3
					c0-0.4-0.1-0.8-0.2-1.2L1166.2,1168.1z"/>
			</g>
		</g>
		<path class="st13" d="M1334.2,1429c-15.8,8.8-64.1-6.6-64.1-8c-0.7,13.2-54.1,142.4-54.1,142.4l0,39.8c0,0,110,5.2,108.4-4.5
			c-1.6-9.7-7.5-3.4-29.4-21.8c-1.9-1.6-32.8-8.8-24.4-27C1287.4,1513.2,1323.1,1451.9,1334.2,1429z"/>
		<path class="st2" d="M1212.5,1604.6l120.4,0c4.3-0.4,5.4-4,3.8-6.1c-3.2-4.4-26.2-14.9-41.8-21.8c-27,3.2-74.5-7.2-78.9-13.4
			C1204.6,1578.6,1210,1604.1,1212.5,1604.6z"/>
		<path class="st3" d="M1186,1336.3c-1.6-4.9,103.7-49.6,108.4-44.5c8.3,9-57,178.6-57,178.6l75,22.9c0,0,78-195.9,74.8-231.7
			c-3.3-35.8-42.3-76.5-127-50.5S1186,1336.3,1186,1336.3z"/>
		<path class="st13" d="M1404.1,1451.3c-17.8-3.2-40.8-4.2-59.3-4.5c2.2,16.4,12.7,100.6,10.8,105.8c-7.8,21-25.2,30.8-25.2,30.8
			s81.8,73.8,86.7,65.3c4.9-8.5-3.6-7.4-9-35.5c-0.5-2.5-12.3-41.7-13-62.9C1393.8,1509.9,1403.5,1473.7,1404.1,1451.3z"/>
		<path class="st4" d="M1377.8,1175.8c-11.4-6.1-41-6.3-73.6-4.2c-63.5,4.1-126.2,16.6-186.5,36.6l-40.4,13.4l0.1-41.4
			c0,0-128.6-21.5-133,10.4c-6.7,48,1.6,145.4,44.5,167.1c133,67.5,319.5-107.6,320.2-84.7c0.9,30.8,26.8,145.3,33.5,195.4
			c18.4,0.3,50.1,0.3,63.9-2.8C1409.1,1367.3,1410.3,1193.1,1377.8,1175.8z"/>
		<path class="st2" d="M1328,1585.1l91.9,73.4c3.6,2.4,6.7,0.3,6.8-2.3c0.4-5.4-10.9-28.1-18.5-43.3c-22.9-14.7-53.1-53-52.6-60.5
			C1346,1560.6,1326.4,1583.2,1328,1585.1z"/>
		<path class="st14" d="M1119.9,775.3c-3.1-28.2-6.3-56.6-29.7-77.2c-18.9-16.7-43-19.6-66.8-10.6c-67.5,25.4-32.7,85.3-118.7,145.7
			c-26.7,18.8-56.2,31.6-76.3,56.9c-28.2,35.4-17.5,77.9,8.1,106.3c122.8,135.9,259.9-47.6,269.8-91.7
			C1113.6,871.8,1121.9,793.5,1119.9,775.3z"/>
		<path class="st1" d="M1095,934c-10-18.5-20.4-33.2-20.4-33.2c-10.4-18.5-37.3-27.9-37.3-27.9s-9,0.2-19.3,0.7
			c-0.6,1.7-1.3,2.9-1.9,3.4c-3.9,2.9-26.1-0.8-40.5,8.9c-48.1,41.3-34.8,241.3-31,304.5l146.6,1.4c0,0-18.5-136,11.3-170.9
			C1123.2,996.7,1109.8,961.5,1095,934z"/>
		<path class="st13" d="M1028.9,805.3c0,0-8.1,57.6-13.7,71.6c-5.6,14,31,43.9,61.4,53c30.4,9.1-9.3-30.9-8-45.9
			c1.3-15,6.8-85.8,6.8-85.8L1028.9,805.3z"/>
		<path class="st11" d="M1073.8,818.6c0.9-11.7,1.5-20.3,1.5-20.3l-46.5,7.1c0,0-1.2,6.8-2.5,16.3
			C1045.2,832.6,1062.2,829.1,1073.8,818.6z"/>
		<path class="st13" d="M1043.4,700.2c0,0-18.3,4.1-29.6,21.4c-11.3,17.3-19.1,68,18.2,91.8c37.2,23.7,66.2-9.8,66.7-42.5
			C1099.2,738.1,1092.1,694.4,1043.4,700.2z"/>
		
			<ellipse transform="matrix(0.9277 0.3734 -0.3734 0.9277 362.203 -355.5436)" class="st13" cx="1098.9" cy="757.2" rx="9" ry="15.4"/>
		<path class="st14" d="M1048.9,699.1c0,0-23.3,52.4-43.9,57c-20.5,4.7-20.2,31-20.2,31s0.5-60.8,19.7-74.8
			C1023.8,698.4,1048.9,699.1,1048.9,699.1z"/>
		
			<ellipse transform="matrix(0.9531 -0.3026 0.3026 0.9531 -186.0982 339.597)" class="st13" cx="1002.8" cy="770.3" rx="10.9" ry="16.2"/>
		<path class="st13" d="M1275.5,1145c-8.8-3.2-21.9-3.6-21.7-4.7c0.9-4.7,39.7,10.4,34.5,3.5c-2.9-3.8-32-17.3-39.1-15.1
			c-6.9,2.2-51.9,14.8-51.9,14.8l-123.1-28.9c0,0-31.1-70.6-34.1-131.3c-25.7,3.5-43.2,9.8-65.5,22.2c10.8,58,36.9,152.1,65.9,169.7
			c12.2,7.4,157.5-8.9,157.5-8.9s32-2.3,37.3-4.3c4-1.5,14.2-7.3,19.7-8.9c12.6-3.6,35.1,5.4,35.2,2.9
			C1290.2,1154.4,1284.5,1148.3,1275.5,1145z"/>
		<path class="st7" d="M1040.9,918.6c-1.2-18.7-8.3-36.7-28.1-42.5c-12.3-3.6-26.1-0.2-36,7.9c-11.7,9.6-15,24.9-14.9,39.4
			c0.1,33,2.4,67.1,8.4,99.6c22.3-12.4,48.4-19.8,74.1-23.3C1044.3,999.4,1042.4,943.2,1040.9,918.6z"/>
	</g>
	<g>
		<path class="st5" d="M659.5,953.8l-190.9-35.5c-3.8-0.7-6.4-4.4-5.6-8.2l23.9-128.4c0.7-3.8,4.4-6.4,8.2-5.6l190.9,35.5
			c3.8,0.7,6.4,4.4,5.6,8.2l-23.9,128.4C667,952,663.3,954.5,659.5,953.8z"/>
		<path class="st5" d="M568.6,807l-58.1-10.8c-3.8-0.7-6.4-4.4-5.6-8.2l3.6-19.5c0.7-3.8,4.4-6.4,8.2-5.6l58.1,10.8
			c3.8,0.7,6.4,4.4,5.6,8.2l-3.6,19.5C576.1,805.2,572.4,807.7,568.6,807z"/>
		<path class="st6" d="M668.1,948.9c-1,3.5-4.5,5.7-8.1,5l-192.1-35.8c-3.6-0.7-6.1-3.9-5.7-7.6l10.1-115.1c0.2-2,1.2-3.8,2.8-5
			c1.6-1.2,3.6-1.7,5.6-1.3L694,828.9c2,0.4,3.7,1.5,4.7,3.2c1,1.7,1.3,3.7,0.8,5.6L668.1,948.9z"/>
	</g>
	<g>
		<polygon class="st1" points="1543.5,528.4 1510.9,537.3 1503.8,497.7 1514.5,495.8 1519.5,523.7 1540.7,517.9 		"/>
	</g>
	<g>
		<path class="st3" d="M502.3,1072.3c8.2-0.7,20.8,2.9,26.4,6.8c0.8,0.8,7.3,3.4,14.1,14.5l-1.5,1c-7.1-7.4-11.9-9.1-17.6-10.8
			c-9.4-2.4-18.8-0.6-19.6-0.2L502.3,1072.3z"/>
		<path class="st11" d="M542,1094.1c0,0-49.9,8.3-45.2,47.3c4.7,39,57.3,69.3,104.2,45.2c63.2-32.4,38.2-114.8-6.7-121.2
			C549.3,1059,542,1094.1,542,1094.1z"/>
		<path class="st8" d="M563.2,1076.9c0,0,13-13.4,41.5-1.2c28.5,12.2,30.6,68.8,5.1,65.5C584.4,1138,542.8,1085.1,563.2,1076.9z"/>
	</g>
	<g>
		<path class="st10" d="M906.2,559.4l-205.1,73.2c-6.6,2.4-13.9-1.1-16.2-7.7L647,518.7c-2.4-6.6,1.1-13.9,7.7-16.2l205.1-73.2
			c6.6-2.4,13.9,1.1,16.2,7.7l37.9,106.1C916.3,549.8,912.8,557,906.2,559.4z"/>
		<circle class="st0" cx="732" cy="545.8" r="40.6"/>
		<circle class="st10" cx="726.5" cy="530.4" r="12"/>
		<path class="st10" d="M757.3,559.8l-36.1,12.9l-1.4-4c-2.6-7.4,1.2-15.5,8.6-18.1l9.3-3.3c7.4-2.6,15.5,1.2,18.1,8.6L757.3,559.8z
			"/>
		<g>
			<path class="st0" d="M775.3,509.9c-2.2,0-4.1-1.4-4.9-3.4c-1-2.7,0.4-5.7,3.1-6.6l89.7-32c0.6-0.2,1.1-0.3,1.7-0.3
				c2.2,0,4.1,1.4,4.9,3.4c1,2.7-0.4,5.7-3.1,6.6l-89.7,32C776.5,509.8,775.9,509.9,775.3,509.9z"/>
		</g>
		<g>
			<path class="st0" d="M799.5,532.3c-2.2,0-4.1-1.4-4.9-3.4c-1-2.7,0.4-5.7,3.1-6.6l70-25c0.6-0.2,1.1-0.3,1.7-0.3
				c2.2,0,4.1,1.4,4.9,3.4c0.5,1.3,0.4,2.7-0.2,4c-0.6,1.3-1.6,2.2-2.9,2.7l-70,25C800.7,532.2,800.1,532.3,799.5,532.3z"/>
		</g>
	</g>
	<path class="st11" d="M1224.9,1359.9H729.7c-15.4,0-27.8,12.5-27.8,27.8v23.4c0,15.4,12.5,27.8,27.8,27.8h495.2l-0.3-0.3
		C1203.4,1416.7,1203.6,1381.8,1224.9,1359.9z"/>
	<path class="st6" d="M1216.1,1371.6H951.4c-15.4,0-27.8,12.5-27.8,27.8l0,0c0,15.4,12.5,27.8,27.8,27.8h264.7
		C1206.4,1410,1206.4,1388.8,1216.1,1371.6z"/>
	<g>
		<g>
			<path class="st6" d="M1630.2,1362.2l-37.5-94.2c-1.9-4.7,0.4-10.1,5.2-12l135.1-53.8c4.7-1.9,10.1,0.4,12,5.2l37.5,94.2
				c1.9,4.7-0.4,10.1-5.2,12l-135.1,53.8C1637.5,1369.2,1632.1,1366.9,1630.2,1362.2z"/>
			<path class="st4" d="M1757.6,1307.7l-33.7-84.6c-0.5-1.4,0.1-2.9,1.5-3.4l0,0c1.4-0.5,2.9,0.1,3.4,1.5l33.7,84.6
				c0.5,1.4-0.1,2.9-1.5,3.4l0,0C1759.7,1309.7,1758.2,1309.1,1757.6,1307.7z"/>
			<path class="st4" d="M1741.6,1296.5l-27.7-69.5c-0.5-1.4,0.1-2.9,1.5-3.4l0,0c1.4-0.5,2.9,0.1,3.4,1.5l27.7,69.5
				c0.5,1.4-0.1,2.9-1.5,3.4l0,0C1743.7,1298.6,1742.1,1297.9,1741.6,1296.5z"/>
			<path class="st4" d="M1737.6,1315.7l-33.7-84.6c-0.5-1.4,0.1-2.9,1.5-3.4l0,0c1.4-0.5,2.9,0.1,3.4,1.5l33.7,84.6
				c0.5,1.4-0.1,2.9-1.5,3.4l0,0C1739.7,1317.7,1738.1,1317.1,1737.6,1315.7z"/>
			<path class="st4" d="M1719.8,1300.4l-26-65.3c-0.5-1.4,0.1-2.9,1.5-3.4l0,0c1.4-0.5,2.9,0.1,3.4,1.5l26,65.3
				c0.5,1.4-0.1,2.9-1.5,3.4l0,0C1721.9,1302.4,1720.4,1301.7,1719.8,1300.4z"/>
			<g>
				<path class="st3" d="M1756.7,1214l-0.7-1.7c-0.3-0.6-0.9-0.9-1.5-0.7l-12.8,5.1c-0.6,0.2-0.9,0.9-0.6,1.6l0.7,1.7
					c0.3,0.6,0.9,0.9,1.5,0.7l12.8-5.1C1756.7,1215.4,1757,1214.7,1756.7,1214z"/>
				<path class="st3" d="M1759.6,1221.3l-0.7-1.7c-0.3-0.6-0.9-0.9-1.5-0.7l-12.8,5.1c-0.6,0.2-0.9,0.9-0.6,1.6l0.7,1.7
					c0.3,0.6,0.9,0.9,1.5,0.7l12.8-5.1C1759.6,1222.7,1759.9,1222,1759.6,1221.3z"/>
				<path class="st3" d="M1762.6,1228.6l-0.7-1.7c-0.2-0.6-0.9-0.9-1.5-0.7l-12.8,5.1c-0.6,0.2-0.9,0.9-0.6,1.6l0.7,1.7
					c0.3,0.6,0.9,0.9,1.5,0.7l12.8-5.1C1762.5,1229.9,1762.8,1229.2,1762.6,1228.6z"/>
				<path class="st3" d="M1765.5,1235.9l-0.7-1.7c-0.3-0.6-0.9-0.9-1.5-0.7l-12.8,5.1c-0.6,0.2-0.9,0.9-0.6,1.6l0.7,1.7
					c0.3,0.6,0.9,0.9,1.5,0.7l12.8-5.1C1765.4,1237.2,1765.7,1236.5,1765.5,1235.9z"/>
				<path class="st3" d="M1768.4,1243.2l-0.7-1.7c-0.3-0.6-0.9-0.9-1.5-0.7l-12.8,5.1c-0.6,0.2-0.9,0.9-0.6,1.6l0.7,1.7
					c0.3,0.6,0.9,0.9,1.5,0.7l12.8-5.1C1768.3,1244.5,1768.6,1243.8,1768.4,1243.2z"/>
				<path class="st3" d="M1771.3,1250.5l-0.7-1.7c-0.3-0.6-0.9-0.9-1.5-0.7l-12.8,5.1c-0.6,0.2-0.9,0.9-0.6,1.6l0.7,1.7
					c0.3,0.6,0.9,0.9,1.5,0.7l12.8-5.1C1771.2,1251.8,1771.5,1251.1,1771.3,1250.5z"/>
				<path class="st3" d="M1774.2,1257.8l-0.7-1.7c-0.3-0.6-0.9-0.9-1.5-0.7l-12.8,5.1c-0.6,0.2-0.9,0.9-0.6,1.6l0.7,1.7
					c0.3,0.6,0.9,0.9,1.5,0.7l12.8-5.1C1774.1,1259.1,1774.4,1258.4,1774.2,1257.8z"/>
				<path class="st3" d="M1777.1,1265.1l-0.7-1.7c-0.3-0.6-0.9-0.9-1.5-0.7l-12.8,5.1c-0.6,0.2-0.9,0.9-0.6,1.6l0.7,1.7
					c0.3,0.6,0.9,0.9,1.5,0.7l12.8-5.1C1777.1,1266.4,1777.3,1265.7,1777.1,1265.1z"/>
				<path class="st3" d="M1780,1272.3l-0.7-1.7c-0.3-0.6-0.9-0.9-1.5-0.7l-12.8,5.1c-0.6,0.2-0.9,0.9-0.6,1.6l0.7,1.7
					c0.3,0.6,0.9,0.9,1.5,0.7l12.8-5.1C1780,1273.7,1780.2,1273,1780,1272.3z"/>
				<path class="st3" d="M1782.9,1279.6l-0.7-1.7c-0.3-0.6-0.9-0.9-1.5-0.7l-12.8,5.1c-0.6,0.2-0.9,0.9-0.6,1.6l0.7,1.7
					c0.3,0.6,0.9,0.9,1.5,0.7l12.8-5.1C1782.9,1281,1783.1,1280.3,1782.9,1279.6z"/>
				<path class="st3" d="M1785.8,1286.9l-0.7-1.7c-0.2-0.6-0.9-0.9-1.5-0.7l-12.8,5.1c-0.6,0.2-0.9,0.9-0.6,1.6l0.7,1.7
					c0.3,0.6,0.9,0.9,1.5,0.7l12.8-5.1C1785.8,1288.3,1786,1287.6,1785.8,1286.9z"/>
				<path class="st3" d="M1788.7,1294.2l-0.7-1.7c-0.3-0.6-0.9-0.9-1.5-0.7l-12.8,5.1c-0.6,0.2-0.9,0.9-0.6,1.6l0.7,1.7
					c0.2,0.6,0.9,0.9,1.5,0.7l12.8-5.1C1788.7,1295.5,1789,1294.8,1788.7,1294.2z"/>
			</g>
		</g>
		<g>
			<path class="st9" d="M1824.1,1286.7l-53.6,76.3c-0.1,0.2-0.2,0.4-0.3,0.6l-5.5,16.8c-0.6,2,1.6,3.6,3.3,2.3l14.3-10.8
				c0.2-0.1,0.3-0.3,0.5-0.5l53.8-76.5c0.7-1,0.4-2.3-0.6-3l-9-5.8C1826,1285.5,1824.8,1285.8,1824.1,1286.7z"/>
			<path class="st5" d="M1782.8,1371.5l-0.1,0.2l-13.8,10.4l-3.8-2.5l5.2-15.9C1774.3,1365.9,1779.1,1368.2,1782.8,1371.5z"/>
		</g>
	</g>
	<g>
		<path class="st4" d="M1281,460.2c7.7,6.2,21.1,26,38.3,39.9c10,8.1,17.7,6.1,30.5,7.6c60.7,7.3,44.2,19.7,51.5,21
			c-2.1,4.8-21,44.9-24.5,53.1c-3.3,7.5-8.9,10.8-17.1,9.7c-12.5-1.7-25.2-3-37.6-5.7c-31.7-6.9-49.3-22.7-72-41.9
			c-6-5.1-7.5-11.5-4.4-18.7C1260.3,491.6,1279.4,463.3,1281,460.2z"/>
		<path class="st10" d="M1407.9,577.1c-0.3,13.2,0.7,15.9-4.9,13.9c-3.4-1.2-6.7-2.8-10-4.4c-2.3-1.2-2.4-2.7-0.5-4.6
			c2.7-2.7,5.5-5.3,8.2-8c-2-5.2,0.3-11.2,5.1-14.1c1-0.6,0.3,0.6,8.7-18.8c-27.9-3.4-47.7-5.8-81.8-10c-9.1-1.1-17.2-4.7-24.3-10.6
			c-24.4-20.4-48.7-40.8-73-61.1c-3.3-2.8-3.7-6.8-1.1-9.9c2-2.4,4.7-2.5,7.5-2.1c7.8,1,84.1,10.5,91.8,11.4
			c10.2,1.2,19.1,5,27,11.6c23.9,20,47.9,40,71.9,60c3.3,2.7,4.2,5.3,3,8.3c-1.3,3.4-4,5-8.2,4c-3-0.7-4.4,0.3-5.4,3.1
			c-4.7,12.6-8,15.4-6.8,20.1C1415.9,569.3,1411.7,575.5,1407.9,577.1z"/>
	</g>
	<g>
		<path class="st4" d="M1534.4,1475.4l13.9,13.3c32.9,31.4,59.7,68.5,79.1,109.6l2.1,4.5c0,0,36.4,3.2,41.5-29.7l0,0
			c-31.9-36.1-58.2-74.6-79.9-117.4l-6.6-15.4L1534.4,1475.4z"/>
		<path class="st10" d="M1584.5,1440.2c1.8,2.6-8,12.5-21.8,22.1c-13.8,9.6-26.6,15.5-28.3,12.9c-1.8-2.6,8-12.6,21.9-22.2
			C1570.1,1443.4,1582.7,1437.7,1584.5,1440.2z"/>
		<path class="st3" d="M1584.6,1440.3L1584.6,1440.3c0,0-27.8,23.4-39.2,25.8l3.5,4.8c4.2-2.3,8.9-5.2,13.8-8.6
			C1576.4,1452.8,1586.1,1443,1584.6,1440.3z"/>
		<g>
			<path class="st9" d="M1621.6,1508.4c0,4-1.5,21.5-30.5,28.8c1.9,2.6,3.8,5.2,5.6,7.9c18.4-5.4,26.6-14.9,30.4-22.1
				c0.6-1.1,1.3-2.7,1.8-3.8C1626.4,1515.7,1624,1512.1,1621.6,1508.4z"/>
			<polygon class="st9" points="1593.7,1532.1 1550.9,1530.5 1561.1,1539.1 1555,1550.1 1595.5,1539.8 			"/>
			<polygon class="st9" points="1597.6,1542 1582.4,1568.5 1593.1,1564.4 1597.2,1572.8 1604.3,1545 			"/>
			
				<ellipse transform="matrix(7.058275e-002 0.9975 -0.9975 7.058275e-002 3020.6216 -171.5514)" class="st11" cx="1602.4" cy="1535.2" rx="14" ry="13.6"/>
		</g>
	</g>
	<g>
		<path class="st15" d="M1694.1,949l-90-80.3c-5.8-5.2-3.4-16,4.7-20.5l71.8-40.7c4.6-2.6,9.8-2.4,13.1,0.6l90,80.3
			c5.8,5.2,3.4,16-4.7,20.5l-71.8,40.7C1702.6,952.2,1697.4,952,1694.1,949z"/>
		<g>
			<path class="st0" d="M1689.8,885.1l-7.5-61.7c-0.3-2.4,1.4-4.9,3.8-5.6c2.4-0.8,4.6,0.6,4.9,2.9l6.9,56.8l68.2,16.5
				c2.2,0.5,3.3,2.9,2.3,5.4c-1,2.4-3.5,3.9-5.8,3.4L1689.8,885.1z"/>
		</g>
	</g>
	<g>
		<path class="st12" d="M170.4,1720.9c-4.8,0-8.7,4.5-8.7,10.1c0,5.6,3.9,10.1,9.8,3.3h1772.6c2.3,0,4.1-3,4.1-6.7l0,0
			c0-3.7-1.8-6.7-4.1-6.7H170.4z"/>
	</g>
	<polygon class="st5" points="514.5,602.5 523.9,620.9 544.9,620.2 553.8,641.6 576,634 587.2,657.7 608.5,653.2 623,674.2 
		615,679.7 604.2,664 581.7,668.7 571,645.9 548.4,653.7 538.5,630.1 518,630.8 509.4,613.7 496,617 493.7,607.6 	"/>
	<polygon class="st1" points="1640.1,1073.3 1659.2,1081 1674.6,1066.7 1695.4,1076.9 1707.1,1056.6 1731.1,1067.1 1744.2,1049.8 
		1769,1056.1 1766.6,1065.5 1748.1,1060.7 1734.3,1079.1 1711.2,1069 1699.3,1089.6 1676.3,1078.3 1661.3,1092.3 1643.6,1085.1 
		1635.6,1096.4 1627.7,1090.8 	"/>
</g>
</svg>
